<svg width="17" height="17" viewBox="0 0 17 17" fill="none" xmlns="http://www.w3.org/2000/svg">
<path fill-rule="evenodd" clip-rule="evenodd" d="M3.54175 4.95835C3.35389 4.95835 3.17372 5.03298 3.04088 5.16582C2.90804 5.29866 2.83341 5.47883 2.83341 5.66669V13.4584C2.83341 13.6462 2.90804 13.8264 3.04088 13.9592C3.17372 14.0921 3.35389 14.1667 3.54175 14.1667H11.3334C11.5213 14.1667 11.7014 14.0921 11.8343 13.9592C11.9671 13.8264 12.0417 13.6462 12.0417 13.4584V9.20835C12.0417 8.81715 12.3589 8.50002 12.7501 8.50002C13.1413 8.50002 13.4584 8.81715 13.4584 9.20835V13.4584C13.4584 14.0219 13.2345 14.5624 12.836 14.961C12.4375 15.3595 11.897 15.5834 11.3334 15.5834H3.54175C2.97816 15.5834 2.43766 15.3595 2.03915 14.961C1.64063 14.5624 1.41675 14.0219 1.41675 13.4584V5.66669C1.41675 5.1031 1.64063 4.5626 2.03915 4.16409C2.43766 3.76557 2.97816 3.54169 3.54175 3.54169H7.79175C8.18295 3.54169 8.50008 3.85882 8.50008 4.25002C8.50008 4.64122 8.18295 4.95835 7.79175 4.95835H3.54175Z" fill="#0C161F"/>
<path fill-rule="evenodd" clip-rule="evenodd" d="M9.91675 2.12502C9.91675 1.73382 10.2339 1.41669 10.6251 1.41669H14.8751C15.2663 1.41669 15.5834 1.73382 15.5834 2.12502V6.37502C15.5834 6.76622 15.2663 7.08335 14.8751 7.08335C14.4839 7.08335 14.1667 6.76622 14.1667 6.37502V2.83335H10.6251C10.2339 2.83335 9.91675 2.51622 9.91675 2.12502Z" fill="#0C161F"/>
<path fill-rule="evenodd" clip-rule="evenodd" d="M15.3759 1.62415C15.6525 1.90077 15.6525 2.34927 15.3759 2.62589L7.5842 10.4176C7.30758 10.6942 6.85909 10.6942 6.58247 10.4176C6.30584 10.1409 6.30584 9.69244 6.58247 9.41582L14.3741 1.62415C14.6508 1.34753 15.0992 1.34753 15.3759 1.62415Z" fill="#0C161F"/>
</svg>
