<svg width="159" height="66" viewBox="0 0 159 66" fill="none" xmlns="http://www.w3.org/2000/svg">
<path fill-rule="evenodd" clip-rule="evenodd" d="M158.004 3.71117V40.387C158.004 42.428 156.424 44.0981 154.292 44.0981C152.161 44.0981 150.579 42.428 150.579 40.387V3.71117C150.579 1.67017 152.161 0 154.292 0C156.424 0 158.004 1.67017 158.004 3.71117ZM147.312 3.71117V40.387C147.312 42.428 145.732 44.0981 143.601 44.0981C141.469 44.0981 139.887 42.428 139.887 40.387V3.71117C139.887 1.67017 141.469 0 143.601 0C145.732 0 147.312 1.67017 147.312 3.71117ZM60.3894 15.8468C60.3894 17.701 58.9371 19.0767 57.1622 19.0767H53.7738V22.4652C53.7738 24.2401 52.4009 25.6923 50.5467 25.6923C48.6925 25.6923 47.3167 24.2401 47.3167 22.4652V19.0767H43.9283C42.1534 19.0767 40.7012 17.701 40.7012 15.8468C40.7012 13.9926 42.1534 12.6197 43.9283 12.6197H47.3167V9.23123C47.3167 7.45632 48.6925 6.00412 50.5467 6.00412C52.4008 6.00412 53.7738 7.45632 53.7738 9.23123V12.6197H57.1622C58.9371 12.6225 60.3894 13.9926 60.3894 15.8468ZM106.376 17.2084L97.3567 41.7429C96.8302 43.1781 95.3808 44.0868 93.838 44.0953C92.2952 44.0868 90.8459 43.1781 90.3193 41.7429L84.9635 26.802L79.6076 41.7429C79.0811 43.1781 77.6317 44.0868 76.0889 44.0953C74.5461 44.0868 73.0968 43.1781 72.5702 41.7429L63.5768 17.2084C62.9116 15.4024 63.942 13.4463 65.8867 12.8065C67.7805 12.1837 69.9489 13.1689 70.6113 14.9777L76.0889 29.9498L81.4618 14.9692C81.9883 13.5397 83.4433 12.6195 84.9634 12.6195C86.4836 12.6195 87.9415 13.5397 88.4651 14.9692L93.838 29.9498L99.3411 14.9777C100.006 13.1717 102.172 12.1837 104.066 12.8065C106.01 13.4463 107.038 15.4024 106.376 17.2084H106.376ZM115.225 24.6477C115.293 24.4694 116.524 19.6316 122.126 19.6316C125.45 19.6316 127.986 21.7405 128.829 24.6477H115.225ZM122.033 12.6225C113.376 12.6225 106.435 19.6995 106.435 28.3589C106.435 37.0155 113.444 44.0953 122.101 44.0953C127.66 44.0953 131.069 42.612 133.809 40.3417C134.887 39.4415 135.49 37.5222 134.451 35.8577C133.495 34.3234 131.12 33.7516 129.319 34.9943C127.553 36.2144 125.755 37.0693 122.44 37.0693C117.523 37.0693 115.383 33.6666 114.925 31.1076H133.523C136.892 31.1076 137.138 28.2655 137.107 27.1671C137.107 20.9875 131.966 12.6225 122.033 12.6225H122.033Z" fill="#00A48F"/>
<path fill-rule="evenodd" clip-rule="evenodd" d="M9.90424 49.1854V62.262H7.75521V56.6011H2.14903V62.262H0V49.1854H2.14903V54.5462H7.75521V49.1854H9.90424Z" fill="#004D6A"/>
<path fill-rule="evenodd" clip-rule="evenodd" d="M18.3834 56.8079C18.1032 55.2 16.9256 54.5093 15.7111 54.5093C14.1967 54.5093 13.1719 55.4066 12.8917 56.8079H18.3834ZM15.898 60.6578C17.019 60.6578 17.8597 60.1539 18.307 59.5L19.9687 60.4709C19.1081 61.7419 17.7068 62.5063 15.8782 62.5063C12.7954 62.5063 10.7969 60.3945 10.7969 57.592C10.7969 54.8263 12.7954 52.6777 15.7281 52.6777C18.5108 52.6777 20.4159 54.9197 20.4159 57.609C20.4159 57.8892 20.3791 58.1893 20.3423 58.4497H12.9087C13.2285 59.9104 14.4033 60.6578 15.898 60.6578Z" fill="#004D6A"/>
<path fill-rule="evenodd" clip-rule="evenodd" d="M28.9029 57.592C28.9029 55.8539 27.6319 54.6027 25.9504 54.6027C24.2689 54.6027 22.9979 55.8539 22.9979 57.592C22.9979 59.3301 24.2689 60.5813 25.9504 60.5813C27.6319 60.5813 28.9029 59.3301 28.9029 57.592ZM30.9184 52.9212V62.2628H28.9001V60.9182C28.1895 61.909 27.0884 62.5063 25.6305 62.5063C23.0913 62.5063 20.9795 60.3577 20.9795 57.592C20.9795 54.8093 23.0913 52.6777 25.6305 52.6777C27.0883 52.6777 28.1895 53.275 28.9001 54.246V52.9184H30.9184V52.9212Z" fill="#004D6A"/>
<path fill-rule="evenodd" clip-rule="evenodd" d="M32.2078 48.6244H34.2245V62.2619H32.2078V48.6244Z" fill="#004D6A"/>
<path fill-rule="evenodd" clip-rule="evenodd" d="M38.7646 54.8644V59.3477C38.7646 60.5421 39.5491 60.5251 41.0811 60.4487V62.2602C37.9774 62.6338 36.7455 61.7733 36.7455 59.3477V54.8644H35.0266V52.9228H36.7455V50.9047L38.7646 50.3075V52.9228H41.0811V54.8644H38.7646H38.7646Z" fill="#004D6A"/>
<path fill-rule="evenodd" clip-rule="evenodd" d="M50.8109 56.5274V62.2662H48.7948V56.7342C48.7948 55.3122 47.9747 54.5644 46.705 54.5644C45.3788 54.5644 44.3354 55.349 44.3354 57.2554V62.2662H42.3192V49.1796H44.3354V54.114C44.9518 53.1424 45.9585 52.6751 47.2282 52.6751C49.3179 52.6779 50.8109 54.097 50.8109 56.5274L50.8109 56.5274Z" fill="#004D6A"/>
<path fill-rule="evenodd" clip-rule="evenodd" d="M51.7691 57.5931C51.7691 54.8088 53.882 52.676 56.703 52.676C58.5356 52.676 60.1245 53.6305 60.8723 55.0864L59.1332 56.0948C58.7225 55.2167 57.8048 54.6559 56.6832 54.6559C55.0377 54.6559 53.7858 55.9078 53.7858 57.5903C53.7858 59.2728 55.0377 60.5247 56.6832 60.5247C57.8048 60.5247 58.7197 59.944 59.17 59.0858L60.9091 60.0772C60.1245 61.5529 58.5356 62.5074 56.703 62.5074C53.882 62.5102 51.7691 60.3604 51.7691 57.5931V57.5931Z" fill="#004D6A"/>
<path fill-rule="evenodd" clip-rule="evenodd" d="M69.1256 57.592C69.1256 55.8539 67.8546 54.6027 66.1731 54.6027C64.4916 54.6027 63.2206 55.8539 63.2206 57.592C63.2206 59.3301 64.4916 60.5813 66.1731 60.5813C67.8546 60.5813 69.1256 59.3301 69.1256 57.592ZM71.144 52.9212V62.2628H69.1256V60.9182C68.4151 61.909 67.3139 62.5063 65.8561 62.5063C63.3169 62.5063 61.2051 60.3577 61.2051 57.592C61.2051 54.8093 63.3169 52.6777 65.8561 52.6777C67.3139 52.6777 68.4151 53.275 69.1256 54.246V52.9184H71.144V52.9212Z" fill="#004D6A"/>
<path fill-rule="evenodd" clip-rule="evenodd" d="M77.3221 52.7586V54.9437C75.996 54.8503 74.4492 55.4673 74.4492 57.559V62.2659H72.4332V52.9256H74.4492V54.4936C75.0091 53.2256 76.1486 52.7586 77.3221 52.7586V52.7586Z" fill="#004D6A"/>
<path fill-rule="evenodd" clip-rule="evenodd" d="M85.193 56.8079C84.9127 55.2 83.7351 54.5093 82.5207 54.5093C81.0062 54.5093 79.9815 55.4066 79.7012 56.8079H85.193ZM82.7075 60.6578C83.8285 60.6578 84.6693 60.1539 85.1165 59.5L86.7782 60.4709C85.9177 61.7419 84.5164 62.5063 82.6877 62.5063C79.605 62.5063 77.6064 60.3945 77.6064 57.592C77.6064 54.8263 79.605 52.6777 82.5377 52.6777C85.3204 52.6777 87.2255 54.9197 87.2255 57.609C87.2255 57.8892 87.1887 58.1893 87.1519 58.4497H79.7154C80.0381 59.9104 81.2129 60.6578 82.7075 60.6578H82.7075Z" fill="#004D6A"/>
<path fill-rule="evenodd" clip-rule="evenodd" d="M91.7344 59.2978L93.5826 58.2137C94.0496 59.5412 95.0572 60.4188 96.8318 60.4188C98.5329 60.4188 99.2603 59.6516 99.2603 58.7005C99.2603 57.5428 98.2329 57.1493 96.2912 56.552C94.2562 55.935 92.2749 55.1877 92.2749 52.7221C92.2749 50.3132 94.2732 48.9488 96.478 48.9488C98.6263 48.9488 100.214 50.0896 101.035 51.8248L99.2235 52.8721C98.7565 51.8248 97.9357 51.0407 96.478 51.0407C95.227 51.0407 94.4232 51.6748 94.4232 52.6655C94.4232 53.6732 95.1506 54.1035 97.0582 54.7008C99.2263 55.3915 101.411 56.0652 101.411 58.6609C101.411 61.0528 99.5065 62.5078 96.7781 62.5078C94.1996 62.5106 92.425 61.2397 91.7344 59.2978H91.7344Z" fill="#004D6A"/>
<path fill-rule="evenodd" clip-rule="evenodd" d="M110.768 52.9226V62.2595H108.75V61.0655C108.133 62.0359 107.125 62.5028 105.854 62.5028C103.761 62.5028 102.267 61.0825 102.267 58.6577V52.9226H104.285V58.4484C104.285 59.8687 105.106 60.6156 106.377 60.6156C107.705 60.6156 108.75 59.8319 108.75 57.9278V52.9226L110.768 52.9226Z" fill="#004D6A"/>
<path fill-rule="evenodd" clip-rule="evenodd" d="M119.98 57.592C119.98 55.8539 118.709 54.6027 117.028 54.6027C115.346 54.6027 114.075 55.8539 114.075 57.592C114.075 59.3301 115.346 60.5813 117.028 60.5813C118.709 60.5813 119.98 59.3301 119.98 57.592ZM121.998 57.592C121.998 60.3747 119.887 62.5063 117.348 62.5063C115.89 62.5063 114.788 61.909 114.078 60.938V65.9995H112.06V52.9212H114.078V54.2658C114.788 53.275 115.89 52.6777 117.348 52.6777C119.887 52.6806 121.998 54.8291 121.998 57.592V57.592Z" fill="#004D6A"/>
<path fill-rule="evenodd" clip-rule="evenodd" d="M131.06 57.592C131.06 55.8539 129.789 54.6027 128.108 54.6027C126.426 54.6027 125.155 55.8539 125.155 57.592C125.155 59.3301 126.426 60.5813 128.108 60.5813C129.789 60.5813 131.06 59.3301 131.06 57.592ZM133.076 57.592C133.076 60.3747 130.964 62.5063 128.425 62.5063C126.967 62.5063 125.866 61.909 125.155 60.938V65.9995H123.137V52.9212H125.155V54.2658C125.866 53.275 126.967 52.6777 128.425 52.6777C130.967 52.6806 133.076 54.8291 133.076 57.592V57.592Z" fill="#004D6A"/>
<path fill-rule="evenodd" clip-rule="evenodd" d="M134.213 48.6244H136.24V62.2619H134.213V48.6244Z" fill="#004D6A"/>
<path fill-rule="evenodd" clip-rule="evenodd" d="M137.506 52.9216H139.524V62.2632H137.506V52.9216ZM137.226 50.2323C137.226 49.5218 137.806 48.9443 138.514 48.9443C139.221 48.9443 139.802 49.5246 139.802 50.2323C139.802 50.9231 139.221 51.5204 138.514 51.5204C137.806 51.5204 137.226 50.9231 137.226 50.2323Z" fill="#004D6A"/>
<path fill-rule="evenodd" clip-rule="evenodd" d="M148.229 56.8079C147.949 55.2 146.771 54.5093 145.557 54.5093C144.042 54.5093 143.018 55.4066 142.737 56.8079H148.229ZM145.744 60.6578C146.865 60.6578 147.705 60.1539 148.153 59.5L149.814 60.4709C148.954 61.7419 147.553 62.5063 145.724 62.5063C142.641 62.5063 140.643 60.3945 140.643 57.592C140.643 54.8263 142.641 52.6777 145.574 52.6777C148.356 52.6777 150.262 54.9197 150.262 57.609C150.262 57.8892 150.225 58.1893 150.188 58.4497H142.752C143.071 59.9104 144.249 60.6578 145.744 60.6578Z" fill="#004D6A"/>
<path fill-rule="evenodd" clip-rule="evenodd" d="M158.186 59.6274C158.186 61.4954 156.562 62.5031 154.546 62.5031C152.679 62.5031 151.335 61.6624 150.739 60.318L152.475 59.3104C152.775 60.151 153.522 60.6548 154.548 60.6548C155.445 60.6548 156.135 60.3548 156.135 59.6076C156.135 57.9462 151.115 58.8802 151.115 55.5347C151.115 53.7799 152.628 52.676 154.531 52.676C156.062 52.676 157.331 53.3864 157.985 54.6177L156.285 55.5715C155.948 54.8441 155.295 54.5073 154.531 54.5073C153.804 54.5073 153.168 54.8243 153.168 55.4979C153.162 57.199 158.186 56.1715 158.186 59.6274V59.6274Z" fill="#004D6A"/>
</svg>
