<svg width="16" height="15" viewBox="0 0 16 15" fill="none" xmlns="http://www.w3.org/2000/svg">
<path d="M8.23047 0C4.09047 0 0.730469 3.36 0.730469 7.5C0.730469 11.64 4.09047 15 8.23047 15C12.3705 15 15.7305 11.64 15.7305 7.5C15.7305 3.36 12.3705 0 8.23047 0ZM8.23047 2.25C9.47547 2.25 10.4805 3.255 10.4805 4.5C10.4805 5.745 9.47547 6.75 8.23047 6.75C6.98547 6.75 5.98047 5.745 5.98047 4.5C5.98047 3.255 6.98547 2.25 8.23047 2.25ZM8.23047 12.9C6.35547 12.9 4.69797 11.94 3.73047 10.485C3.75297 8.9925 6.73047 8.175 8.23047 8.175C9.72297 8.175 12.708 8.9925 12.7305 10.485C11.763 11.94 10.1055 12.9 8.23047 12.9Z" fill="#A8D7AB"/>
</svg>
