<svg width="24" height="22" viewBox="0 0 24 22" fill="none" xmlns="http://www.w3.org/2000/svg">
<path d="M22.5002 11.2567C22.5002 4.85167 17.5302 0.5 12.0002 0.5C6.5285 0.5 1.50016 4.75833 1.50016 11.3267C0.800163 11.7233 0.333496 12.47 0.333496 13.3333V15.6667C0.333496 16.95 1.3835 18 2.66683 18H3.8335V10.8833C3.8335 6.36833 7.48516 2.71667 12.0002 2.71667C16.5152 2.71667 20.1668 6.36833 20.1668 10.8833V19.1667H10.8335V21.5H20.1668C21.4502 21.5 22.5002 20.45 22.5002 19.1667V17.7433C23.1885 17.3817 23.6668 16.67 23.6668 15.83V13.1467C23.6668 12.33 23.1885 11.6183 22.5002 11.2567Z" fill="black"/>
<path d="M8.50016 13.3333C9.14449 13.3333 9.66683 12.811 9.66683 12.1667C9.66683 11.5223 9.14449 11 8.50016 11C7.85583 11 7.3335 11.5223 7.3335 12.1667C7.3335 12.811 7.85583 13.3333 8.50016 13.3333Z" fill="black"/>
<path d="M15.5002 13.3333C16.1445 13.3333 16.6668 12.811 16.6668 12.1667C16.6668 11.5223 16.1445 11 15.5002 11C14.8558 11 14.3335 11.5223 14.3335 12.1667C14.3335 12.811 14.8558 13.3333 15.5002 13.3333Z" fill="black"/>
<path d="M19 9.86833C18.44 6.54333 15.5467 4 12.0584 4C8.52338 4 4.72005 6.92833 5.02338 11.525C7.90505 10.3467 10.075 7.78 10.6934 4.65333C12.2217 7.72167 15.36 9.83333 19 9.86833Z" fill="black"/>
</svg>
