<svg width="14" height="15" viewBox="0 0 14 15" fill="none" xmlns="http://www.w3.org/2000/svg">
<path d="M3.19547 6.5925C4.27547 8.715 6.01547 10.4475 8.13797 11.535L9.78797 9.885C9.99047 9.6825 10.2905 9.615 10.553 9.705C11.393 9.9825 12.3005 10.1325 13.2305 10.1325C13.643 10.1325 13.9805 10.47 13.9805 10.8825V13.5C13.9805 13.9125 13.643 14.25 13.2305 14.25C6.18797 14.25 0.480469 8.5425 0.480469 1.5C0.480469 1.0875 0.817969 0.75 1.23047 0.75L3.85547 0.75C4.26797 0.75 4.60547 1.0875 4.60547 1.5C4.60547 2.4375 4.75547 3.3375 5.03297 4.1775C5.11547 4.44 5.05547 4.7325 4.84547 4.9425L3.19547 6.5925Z" fill="#A8D7AB"/>
</svg>
