<svg width="89" height="83" viewBox="0 0 89 83" fill="none" xmlns="http://www.w3.org/2000/svg">
<path d="M49.4938 77.9211C70.8396 77.9211 88.1438 60.6169 88.1438 39.2711C88.1438 17.9253 70.8396 0.621094 49.4938 0.621094C28.1479 0.621094 10.8438 17.9253 10.8438 39.2711C10.8438 60.6169 28.1479 77.9211 49.4938 77.9211Z" fill="#EBF8FF"/>
<path d="M5.75402 79.9505C5.31328 79.9446 4.88173 79.8237 4.50211 79.5997C4.12249 79.3757 3.80798 79.0564 3.58973 78.6735C3.37148 78.2905 3.25706 77.8572 3.25782 77.4164C3.25857 76.9757 3.37446 76.5427 3.59402 76.1605L38.704 15.2905C38.9262 14.9064 39.2455 14.5875 39.6299 14.3658C40.0143 14.1441 40.4503 14.0273 40.894 14.0273C41.3378 14.0273 41.7737 14.1441 42.1581 14.3658C42.5425 14.5875 42.8618 14.9064 43.084 15.2905L78.224 76.1605C78.4448 76.5449 78.5607 76.9806 78.5601 77.4239C78.5595 77.8672 78.4425 78.3025 78.2207 78.6863C77.9989 79.0702 77.6802 79.389 77.2964 79.6108C76.9126 79.8327 76.4773 79.9499 76.034 79.9505H5.75402Z" fill="#52B057"/>
<path d="M40.8956 16.5618L76.0356 77.4218H5.75561L40.8956 16.5618ZM40.8956 11.5118C40.0092 11.5068 39.1374 11.7375 38.3695 12.1803C37.6016 12.6231 36.9653 13.2621 36.5256 14.0318L1.37561 74.9018C0.916762 75.6672 0.67113 76.5415 0.664213 77.4339C0.657296 78.3263 0.889346 79.2043 1.33628 79.9767C1.78321 80.7491 2.42874 81.3879 3.20585 81.8266C3.98296 82.2654 4.86335 82.4881 5.75561 82.4718H76.0356C76.927 82.4863 77.8061 82.2622 78.5818 81.8227C79.3575 81.3833 80.0016 80.7444 80.4473 79.9722C80.8931 79.2001 81.1242 78.3228 81.1169 77.4313C81.1096 76.5398 80.864 75.6665 80.4056 74.9018L45.2656 14.0318C44.826 13.2621 44.1896 12.6231 43.4217 12.1803C42.6538 11.7375 41.782 11.5068 40.8956 11.5118Z" fill="#007BB8"/>
<path d="M37.5971 68.2728C37.5671 67.8199 37.63 67.3656 37.782 66.9379C37.934 66.5101 38.1718 66.118 38.4809 65.7855C38.7899 65.453 39.1637 65.1873 39.5792 65.0045C39.9947 64.8218 40.4432 64.7259 40.8971 64.7228C41.7609 64.8153 42.5599 65.2239 43.1406 65.87C43.7212 66.5161 44.0424 67.3541 44.0424 68.2228C44.0424 69.0915 43.7212 69.9295 43.1406 70.5756C42.5599 71.2217 41.7609 71.6303 40.8971 71.7228C40.4521 71.7191 40.0123 71.6262 39.6037 71.4496C39.1952 71.273 38.8262 71.0163 38.5186 70.6947C38.2109 70.3731 37.9709 69.993 37.8126 69.5771C37.6543 69.1611 37.5811 68.7176 37.5971 68.2728ZM39.0171 60.1428L38.2171 32.8828H43.5971L42.7971 60.1428H39.0171Z" fill="#007BB8"/>
<path d="M10.0938 10.7227V20.1827" stroke="#007BB8" stroke-width="3.16" stroke-miterlimit="10"/>
<path d="M14.8272 15.4492H5.36719" stroke="#007BB8" stroke-width="3.16" stroke-miterlimit="10"/>
<path d="M74.6562 32.2422V41.7022" stroke="#007BB8" stroke-width="3.16" stroke-miterlimit="10"/>
<path d="M79.3841 36.9727H69.9141" stroke="#007BB8" stroke-width="3.16" stroke-miterlimit="10"/>
<path d="M65.1875 9V18.46" stroke="#007BB8" stroke-width="3.16" stroke-miterlimit="10"/>
<path d="M69.9153 13.7305H60.4453" stroke="#007BB8" stroke-width="3.16" stroke-miterlimit="10"/>
</svg>
