<svg width="44" height="45" viewBox="0 0 44 45" fill="none" xmlns="http://www.w3.org/2000/svg">
<rect y="0.5" width="44" height="44" rx="10" fill="#E8F8FF"/>
<path d="M29 12.5H15C13.89 12.5 13 13.4 13 14.5V28.5C13 29.6 13.89 30.5 15 30.5H19L22 33.5L25 30.5H29C30.1 30.5 31 29.6 31 28.5V14.5C31 13.4 30.1 12.5 29 12.5ZM29 28.5H24.17L23.58 29.09L22 30.67L20.41 29.08L19.83 28.5H15V14.5H29V28.5ZM21 25.5H23V27.5H21V25.5ZM22 17.5C23.1 17.5 24 18.4 24 19.5C24 21.5 21 21.25 21 24.5H23C23 22.25 26 22 26 19.5C26 17.29 24.21 15.5 22 15.5C19.79 15.5 18 17.29 18 19.5H20C20 18.4 20.9 17.5 22 17.5Z" fill="#0066BE"/>
</svg>
