<svg width="15" height="19" viewBox="0 0 15 19" fill="none" xmlns="http://www.w3.org/2000/svg">
<path d="M13.3333 0.666016H1.66667C0.741667 0.666016 0 1.41602 0 2.33268V13.9993C0 14.916 0.741667 15.666 1.66667 15.666H5L7.5 18.166L10 15.666H13.3333C14.25 15.666 15 14.916 15 13.9993V2.33268C15 1.41602 14.25 0.666016 13.3333 0.666016ZM13.3333 13.9993H9.30833L8.81667 14.491L7.5 15.8077L6.175 14.4827L5.69167 13.9993H1.66667V2.33268H13.3333V13.9993ZM6.66667 11.4993H8.33333V13.166H6.66667V11.4993ZM7.5 4.83268C8.41667 4.83268 9.16667 5.58268 9.16667 6.49935C9.16667 8.16602 6.66667 7.95768 6.66667 10.666H8.33333C8.33333 8.79102 10.8333 8.58268 10.8333 6.49935C10.8333 4.65768 9.34167 3.16602 7.5 3.16602C5.65833 3.16602 4.16667 4.65768 4.16667 6.49935H5.83333C5.83333 5.58268 6.58333 4.83268 7.5 4.83268Z" fill="#0066BE"/>
</svg>
