<svg width="25" height="21" viewBox="0 0 25 21" fill="none" xmlns="http://www.w3.org/2000/svg">
<path d="M22.9987 10.7567C22.9987 4.35167 18.0287 0 12.4987 0C7.02703 0 1.9987 4.25833 1.9987 10.8267C1.2987 11.2233 0.832031 11.97 0.832031 12.8333V15.1667C0.832031 16.45 1.88203 17.5 3.16536 17.5H4.33203V10.3833C4.33203 5.86833 7.9837 2.21667 12.4987 2.21667C17.0137 2.21667 20.6654 5.86833 20.6654 10.3833V18.6667H11.332V21H20.6654C21.9487 21 22.9987 19.95 22.9987 18.6667V17.2433C23.687 16.8817 24.1654 16.17 24.1654 15.33V12.6467C24.1654 11.83 23.687 11.1183 22.9987 10.7567Z" fill="#007BB8"/>
<path d="M8.9987 12.8333C9.64303 12.8333 10.1654 12.311 10.1654 11.6667C10.1654 11.0223 9.64303 10.5 8.9987 10.5C8.35437 10.5 7.83203 11.0223 7.83203 11.6667C7.83203 12.311 8.35437 12.8333 8.9987 12.8333Z" fill="#007BB8"/>
<path d="M15.9987 12.8333C16.643 12.8333 17.1654 12.311 17.1654 11.6667C17.1654 11.0223 16.643 10.5 15.9987 10.5C15.3544 10.5 14.832 11.0223 14.832 11.6667C14.832 12.311 15.3544 12.8333 15.9987 12.8333Z" fill="#007BB8"/>
<path d="M19.4976 9.36833C18.9376 6.04333 16.0443 3.5 12.5559 3.5C9.02094 3.5 5.2176 6.42833 5.52094 11.025C8.4026 9.84667 10.5726 7.28 11.1909 4.15333C12.7193 7.22167 15.8576 9.33333 19.4976 9.36833Z" fill="#007BB8"/>
</svg>
