<svg width="20" height="26" viewBox="0 0 20 26" fill="none" xmlns="http://www.w3.org/2000/svg">
<path d="M17.0013 9.08463H15.8346V6.7513C15.8346 3.5313 13.2213 0.917969 10.0013 0.917969C6.7813 0.917969 4.16797 3.5313 4.16797 6.7513V9.08463H3.0013C1.71797 9.08463 0.667969 10.1346 0.667969 11.418V23.0846C0.667969 24.368 1.71797 25.418 3.0013 25.418H17.0013C18.2846 25.418 19.3346 24.368 19.3346 23.0846V11.418C19.3346 10.1346 18.2846 9.08463 17.0013 9.08463ZM6.5013 6.7513C6.5013 4.81464 8.06464 3.2513 10.0013 3.2513C11.938 3.2513 13.5013 4.81464 13.5013 6.7513V9.08463H6.5013V6.7513ZM17.0013 23.0846H3.0013V11.418H17.0013V23.0846ZM10.0013 19.5846C11.2846 19.5846 12.3346 18.5346 12.3346 17.2513C12.3346 15.968 11.2846 14.918 10.0013 14.918C8.71797 14.918 7.66797 15.968 7.66797 17.2513C7.66797 18.5346 8.71797 19.5846 10.0013 19.5846Z" fill="#A8D7AB"/>
</svg>
