<svg width="104" height="43" viewBox="0 0 159 66" fill="none" xmlns="http://www.w3.org/2000/svg">
<path fill-rule="evenodd" clip-rule="evenodd" d="M158.004 3.71117V40.387C158.004 42.428 156.424 44.0981 154.292 44.0981C152.161 44.0981 150.579 42.428 150.579 40.387V3.71117C150.579 1.67017 152.161 0 154.292 0C156.424 0 158.004 1.67017 158.004 3.71117ZM147.312 3.71117V40.387C147.312 42.428 145.732 44.0981 143.601 44.0981C141.469 44.0981 139.887 42.428 139.887 40.387V3.71117C139.887 1.67017 141.469 0 143.601 0C145.732 0 147.312 1.67017 147.312 3.71117ZM60.3894 15.8468C60.3894 17.701 58.9371 19.0767 57.1622 19.0767H53.7738V22.4652C53.7738 24.2401 52.4009 25.6923 50.5467 25.6923C48.6925 25.6923 47.3167 24.2401 47.3167 22.4652V19.0767H43.9283C42.1534 19.0767 40.7012 17.701 40.7012 15.8468C40.7012 13.9926 42.1534 12.6197 43.9283 12.6197H47.3167V9.23123C47.3167 7.45632 48.6925 6.00412 50.5467 6.00412C52.4008 6.00412 53.7738 7.45632 53.7738 9.23123V12.6197H57.1622C58.9371 12.6225 60.3894 13.9926 60.3894 15.8468ZM106.376 17.2084L97.3567 41.7429C96.8302 43.1781 95.3808 44.0868 93.838 44.0953C92.2952 44.0868 90.8459 43.1781 90.3193 41.7429L84.9635 26.802L79.6076 41.7429C79.0811 43.1781 77.6317 44.0868 76.0889 44.0953C74.5461 44.0868 73.0968 43.1781 72.5702 41.7429L63.5768 17.2084C62.9116 15.4024 63.942 13.4463 65.8867 12.8065C67.7805 12.1837 69.9489 13.1689 70.6113 14.9777L76.0889 29.9498L81.4618 14.9692C81.9883 13.5397 83.4433 12.6195 84.9634 12.6195C86.4836 12.6195 87.9415 13.5397 88.4651 14.9692L93.838 29.9498L99.3411 14.9777C100.006 13.1717 102.172 12.1837 104.066 12.8065C106.01 13.4463 107.038 15.4024 106.376 17.2084H106.376ZM115.225 24.6477C115.293 24.4694 116.524 19.6316 122.126 19.6316C125.45 19.6316 127.986 21.7405 128.829 24.6477H115.225ZM122.033 12.6225C113.376 12.6225 106.435 19.6995 106.435 28.3589C106.435 37.0155 113.444 44.0953 122.101 44.0953C127.66 44.0953 131.069 42.612 133.809 40.3417C134.887 39.4415 135.49 37.5222 134.451 35.8577C133.495 34.3234 131.12 33.7516 129.319 34.9943C127.553 36.2144 125.755 37.0693 122.44 37.0693C117.523 37.0693 115.383 33.6666 114.925 31.1076H133.523C136.892 31.1076 137.138 28.2655 137.107 27.1671C137.107 20.9875 131.966 12.6225 122.033 12.6225H122.033Z" fill="#00A48F"/>
<path fill-rule="evenodd" clip-rule="evenodd" d="M9.90424 49.1859V62.2625H7.75521V56.6016H2.14903V62.2625H0V49.1859H2.14903V54.5467H7.75521V49.1859H9.90424Z" fill="#004D6A"/>
<path fill-rule="evenodd" clip-rule="evenodd" d="M18.3832 56.8084C18.1029 55.2005 16.9253 54.5098 15.7109 54.5098C14.1964 54.5098 13.1717 55.4071 12.8914 56.8084H18.3832ZM15.8977 60.6582C17.0187 60.6582 17.8595 60.1544 18.3067 59.5004L19.9684 60.4714C19.1079 61.7424 17.7066 62.5067 15.8779 62.5067C12.7952 62.5067 10.7966 60.395 10.7966 57.5925C10.7966 54.8268 12.7952 52.6782 15.7279 52.6782C18.5106 52.6782 20.4157 54.9202 20.4157 57.6095C20.4157 57.8897 20.3789 58.1898 20.3421 58.4502H12.9084C13.2283 59.9109 14.4031 60.6582 15.8977 60.6582Z" fill="#004D6A"/>
<path fill-rule="evenodd" clip-rule="evenodd" d="M28.9024 57.5925C28.9024 55.8544 27.6314 54.6032 25.9499 54.6032C24.2684 54.6032 22.9974 55.8544 22.9974 57.5925C22.9974 59.3306 24.2684 60.5818 25.9499 60.5818C27.6314 60.5818 28.9024 59.3306 28.9024 57.5925ZM30.9179 52.9217V62.2633H28.8996V60.9187C28.189 61.9095 27.0879 62.5067 25.63 62.5067C23.0908 62.5067 20.979 60.3582 20.979 57.5925C20.979 54.8098 23.0908 52.6782 25.63 52.6782C27.0879 52.6782 28.189 53.2755 28.8996 54.2465V52.9188H30.9179V52.9217Z" fill="#004D6A"/>
<path fill-rule="evenodd" clip-rule="evenodd" d="M32.2076 48.6249H34.2243V62.2624H32.2076V48.6249Z" fill="#004D6A"/>
<path fill-rule="evenodd" clip-rule="evenodd" d="M38.7646 54.8649V59.3482C38.7646 60.5426 39.549 60.5256 41.081 60.4492V62.2606C37.9773 62.6342 36.7455 61.7738 36.7455 59.3482V54.8649H35.0265V52.9232H36.7455V50.9052L38.7646 50.308V52.9232H41.081V54.8649H38.7646H38.7646Z" fill="#004D6A"/>
<path fill-rule="evenodd" clip-rule="evenodd" d="M50.8113 56.5279V62.2667H48.7951V56.7346C48.7951 55.3127 47.975 54.5649 46.7053 54.5649C45.3791 54.5649 44.3357 55.3495 44.3357 57.2558V62.2667H42.3195V49.1801H44.3357V54.1145C44.9521 53.1429 45.9588 52.6756 47.2285 52.6756C49.3182 52.6784 50.8112 54.0975 50.8112 56.5279L50.8113 56.5279Z" fill="#004D6A"/>
<path fill-rule="evenodd" clip-rule="evenodd" d="M51.7692 57.5936C51.7692 54.8093 53.8821 52.6765 56.7031 52.6765C58.5356 52.6765 60.1246 53.631 60.8723 55.0869L59.1333 56.0953C58.7226 55.2172 57.8049 54.6564 56.6833 54.6564C55.0377 54.6564 53.7858 55.9083 53.7858 57.5908C53.7858 59.2732 55.0377 60.5252 56.6833 60.5252C57.8049 60.5252 58.7198 59.9445 59.1701 59.0863L60.9091 60.0777C60.1246 61.5534 58.5356 62.5079 56.7031 62.5079C53.8821 62.5107 51.7692 60.3609 51.7692 57.5936V57.5936Z" fill="#004D6A"/>
<path fill-rule="evenodd" clip-rule="evenodd" d="M69.1252 57.5925C69.1252 55.8544 67.8542 54.6032 66.1727 54.6032C64.4912 54.6032 63.2202 55.8544 63.2202 57.5925C63.2202 59.3306 64.4912 60.5818 66.1727 60.5818C67.8542 60.5818 69.1252 59.3306 69.1252 57.5925ZM71.1436 52.9217V62.2633H69.1252V60.9187C68.4147 61.9095 67.3135 62.5067 65.8557 62.5067C63.3164 62.5067 61.2047 60.3582 61.2047 57.5925C61.2047 54.8098 63.3164 52.6782 65.8557 52.6782C67.3135 52.6782 68.4147 53.2755 69.1252 54.2465V52.9188H71.1436V52.9217Z" fill="#004D6A"/>
<path fill-rule="evenodd" clip-rule="evenodd" d="M77.322 52.7596V54.9447C75.9959 54.8512 74.4492 55.4683 74.4492 57.5599V62.2669H72.4331V52.9266H74.4492V54.4946C75.0091 53.2266 76.1486 52.7596 77.322 52.7596V52.7596Z" fill="#004D6A"/>
<path fill-rule="evenodd" clip-rule="evenodd" d="M85.1928 56.8084C84.9125 55.2005 83.7349 54.5098 82.5205 54.5098C81.006 54.5098 79.9813 55.4071 79.701 56.8084H85.1928ZM82.7073 60.6582C83.8284 60.6582 84.6691 60.1544 85.1164 59.5004L86.778 60.4714C85.9175 61.7424 84.5162 62.5067 82.6876 62.5067C79.6048 62.5067 77.6063 60.395 77.6063 57.5925C77.6063 54.8268 79.6048 52.6782 82.5375 52.6782C85.3202 52.6782 87.2253 54.9202 87.2253 57.6095C87.2253 57.8897 87.1885 58.1898 87.1517 58.4502H79.7152C80.0379 59.9109 81.2127 60.6582 82.7073 60.6582H82.7073Z" fill="#004D6A"/>
<path fill-rule="evenodd" clip-rule="evenodd" d="M91.7339 59.2978L93.5821 58.2137C94.0491 59.5412 95.0567 60.4188 96.8313 60.4188C98.5324 60.4188 99.2598 59.6516 99.2598 58.7005C99.2598 57.5428 98.2324 57.1493 96.2907 56.552C94.2557 55.935 92.2745 55.1877 92.2745 52.7221C92.2745 50.3132 94.2727 48.9488 96.4775 48.9488C98.6258 48.9488 100.214 50.0896 101.034 51.8248L99.223 52.8721C98.756 51.8248 97.9352 51.0407 96.4775 51.0407C95.2265 51.0407 94.4227 51.6748 94.4227 52.6655C94.4227 53.6732 95.1501 54.1035 97.0577 54.7008C99.2258 55.3915 101.411 56.0652 101.411 58.6609C101.411 61.0528 99.506 62.5078 96.7776 62.5078C94.1991 62.5106 92.4245 61.2397 91.7339 59.2978H91.7339Z" fill="#004D6A"/>
<path fill-rule="evenodd" clip-rule="evenodd" d="M110.768 52.9236V62.2604H108.749V61.0665C108.132 62.0369 107.124 62.5038 105.853 62.5038C103.761 62.5038 102.266 61.0834 102.266 58.6587V52.9236H104.285V58.4493C104.285 59.8697 105.106 60.6166 106.377 60.6166C107.705 60.6166 108.749 59.8329 108.749 57.9287V52.9236L110.768 52.9236Z" fill="#004D6A"/>
<path fill-rule="evenodd" clip-rule="evenodd" d="M119.98 57.5925C119.98 55.8544 118.709 54.6032 117.028 54.6032C115.346 54.6032 114.075 55.8544 114.075 57.5925C114.075 59.3306 115.346 60.5818 117.028 60.5818C118.709 60.5818 119.98 59.3306 119.98 57.5925ZM121.999 57.5925C121.999 60.3752 119.887 62.5068 117.348 62.5068C115.89 62.5068 114.789 61.9095 114.078 60.9385V66H112.06V52.9217H114.078V54.2663C114.789 53.2755 115.89 52.6782 117.348 52.6782C119.887 52.6811 121.999 54.8296 121.999 57.5925V57.5925Z" fill="#004D6A"/>
<path fill-rule="evenodd" clip-rule="evenodd" d="M131.06 57.5925C131.06 55.8544 129.789 54.6032 128.108 54.6032C126.426 54.6032 125.155 55.8544 125.155 57.5925C125.155 59.3306 126.426 60.5818 128.108 60.5818C129.789 60.5818 131.06 59.3306 131.06 57.5925ZM133.076 57.5925C133.076 60.3752 130.964 62.5068 128.425 62.5068C126.967 62.5068 125.866 61.9095 125.155 60.9385V66H123.137V52.9217H125.155V54.2663C125.866 53.2755 126.967 52.6782 128.425 52.6782C130.967 52.6811 133.076 54.8296 133.076 57.5925V57.5925Z" fill="#004D6A"/>
<path fill-rule="evenodd" clip-rule="evenodd" d="M134.213 48.6249H136.24V62.2624H134.213V48.6249Z" fill="#004D6A"/>
<path fill-rule="evenodd" clip-rule="evenodd" d="M137.506 52.9216H139.524V62.2632H137.506V52.9216ZM137.226 50.2323C137.226 49.5218 137.806 48.9443 138.514 48.9443C139.221 48.9443 139.802 49.5246 139.802 50.2323C139.802 50.9231 139.221 51.5204 138.514 51.5204C137.806 51.5204 137.226 50.9231 137.226 50.2323Z" fill="#004D6A"/>
<path fill-rule="evenodd" clip-rule="evenodd" d="M148.229 56.8084C147.949 55.2005 146.771 54.5098 145.557 54.5098C144.042 54.5098 143.017 55.4071 142.737 56.8084H148.229ZM145.744 60.6582C146.864 60.6582 147.705 60.1544 148.152 59.5004L149.814 60.4714C148.954 61.7424 147.552 62.5067 145.724 62.5067C142.641 62.5067 140.642 60.395 140.642 57.5925C140.642 54.8268 142.641 52.6782 145.574 52.6782C148.356 52.6782 150.261 54.9202 150.261 57.6095C150.261 57.8897 150.225 58.1898 150.188 58.4502H142.751C143.071 59.9109 144.249 60.6582 145.744 60.6582Z" fill="#004D6A"/>
<path fill-rule="evenodd" clip-rule="evenodd" d="M158.185 59.6279C158.185 61.4959 156.562 62.5035 154.545 62.5035C152.679 62.5035 151.335 61.6629 150.738 60.3185L152.475 59.3109C152.775 60.1515 153.522 60.6553 154.548 60.6553C155.445 60.6553 156.135 60.3553 156.135 59.6081C156.135 57.9466 151.115 58.8807 151.115 55.5352C151.115 53.7803 152.628 52.6765 154.531 52.6765C156.061 52.6765 157.331 53.3869 157.985 54.6181L156.285 55.572C155.948 54.8446 155.295 54.5078 154.531 54.5078C153.804 54.5078 153.168 54.8248 153.168 55.4984C153.162 57.1994 158.185 56.172 158.185 59.6279V59.6279Z" fill="#004D6A"/>
</svg>
