<svg width="150" height="40" viewBox="0 0 161 45" fill="none" xmlns="http://www.w3.org/2000/svg">
<path d="M26.4992 28.8163H20.5255L18.0817 17.7514C17.878 16.8689 17.6744 15.9864 17.5386 15.1039C17.4028 14.2214 17.2671 13.4747 17.1992 12.728C17.0634 11.9813 16.9956 11.3704 16.9277 10.8952C16.8598 10.42 16.7919 10.0127 16.7919 9.87693C16.6561 10.7594 16.5882 11.574 16.4525 12.3207C16.3167 13.0674 16.181 13.882 16.0452 14.8324C15.9094 15.7828 15.7058 16.7331 15.5021 17.7514L13.262 28.8841H7.01676L0.5 1.52734H6.27005L8.64595 12.2528C8.91748 13.5426 9.12113 14.6966 9.32478 15.7828C9.52843 16.8689 9.6642 17.8192 9.79997 18.6338C9.93573 19.4484 10.0036 20.263 10.1394 21.2134C10.1394 20.9419 10.2073 20.5346 10.2752 19.9236C10.343 19.3127 10.4788 18.6338 10.5467 17.8871C10.6824 17.0725 10.8182 16.2579 10.954 15.3076C11.0897 14.3572 11.2934 13.4747 11.497 12.5244L13.9408 1.52734H19.9145L22.4262 13.6784C22.562 14.2893 22.6977 15.036 22.8335 15.8506C22.9693 16.6652 23.105 17.4798 23.1729 18.2265C23.3087 18.9733 23.4444 19.8557 23.5802 20.874C23.5802 20.6703 23.6481 20.1951 23.7838 19.5163C23.9196 18.7696 23.9875 17.955 24.1233 17.0725C24.259 16.19 24.3948 15.2397 24.5984 14.2893C24.7342 13.339 24.9379 12.5244 25.0736 11.8455L27.3137 1.52734H33.0838L26.4992 28.8163Z" fill="#007BB8"/>
<path d="M48.2897 28.6102L46.3889 22.1613H38.4466L36.5459 28.6102H30.8438L39.7364 1.45703H45.6422L54.1955 28.6102H48.2897ZM45.0313 17.6132C44.8276 16.9343 44.624 16.3913 44.4882 15.8482C44.3525 15.3052 44.2167 14.7621 44.013 14.0833C43.8773 13.4044 43.6736 12.7935 43.5379 12.1147C43.47 11.7752 43.3342 11.3679 43.2663 10.8249C43.1305 10.2818 43.0627 9.73874 42.9269 9.19568C42.7911 8.65261 42.6554 8.04168 42.4517 7.29496C42.2481 7.97379 42.1123 8.58473 41.9765 9.12779C41.8408 9.67085 41.705 10.2139 41.5692 10.8249C41.4335 11.4358 41.2977 11.9789 41.162 12.4541C40.8904 13.4723 40.6868 14.2869 40.4831 15.0336C40.2795 15.7803 40.0079 16.5949 39.7364 17.4774H45.0313V17.6132Z" fill="#007BB8"/>
<path d="M70.0799 28.6126C69.8084 28.1374 69.6048 27.798 69.4011 27.4586C69.1975 27.1192 68.9938 26.7798 68.7902 26.4404C68.5866 26.1009 68.3829 25.7615 68.1792 25.4221C67.9756 25.0827 67.7719 24.6075 67.5004 24.2002C66.8216 22.9783 66.2785 21.9601 65.8033 21.1455C65.3282 20.3309 64.9209 19.72 64.5815 19.1769C64.242 18.7017 63.9705 18.2944 63.699 18.0908C63.4274 17.8192 63.2238 17.6835 62.9522 17.5477C62.6807 17.4119 62.4092 17.344 62.0698 17.344V28.6805H56.707V1.52734H66.8216C68.0435 1.52734 69.1296 1.73098 70.0799 2.0704C71.0303 2.4777 71.9128 3.02075 72.5916 3.69958C73.2705 4.37841 73.8135 5.2609 74.2208 6.21126C74.6281 7.16162 74.7639 8.24774 74.7639 9.46963C74.7639 10.4879 74.6281 11.4382 74.2887 12.3207C73.9493 13.2032 73.542 14.0178 72.9989 14.6966C72.4558 15.3754 71.777 15.9185 71.0982 16.3258C70.3515 16.7331 69.6048 16.9367 68.7223 16.9367C68.9938 17.1404 69.1975 17.3441 69.3333 17.4798C69.469 17.6156 69.6727 17.8192 69.8084 18.0908C70.1479 18.4981 70.5551 19.109 71.0982 19.9236C71.6413 20.7382 72.1843 21.6886 72.7953 22.6389C73.4062 23.5893 73.9493 24.5396 74.4923 25.49C75.0354 26.4404 75.4427 27.1871 75.7821 27.7301C76.1215 28.2732 76.2573 28.6126 76.3252 28.6805H70.0799V28.6126ZM67.2289 6.27915C66.8894 6.14338 66.4822 6.0755 65.9391 6.00762C65.396 5.93974 64.7851 5.93973 64.1063 5.93973H62.1377V13.2711H63.9705C65.1245 13.2711 66.007 13.2032 66.6179 13.0674C67.2289 12.9317 67.704 12.728 68.0435 12.3886C68.7223 11.7098 69.1296 10.8273 69.1296 9.67329C69.1975 7.84045 68.5186 6.75433 67.2289 6.27915Z" fill="#007BB8"/>
<path d="M98.6601 20.2606C98.1849 21.8219 97.5061 23.2474 96.6236 24.4693C95.809 25.6233 94.7908 26.5058 93.6368 27.1846C92.4828 27.8635 91.2608 28.2708 89.9711 28.4065C89.428 28.4744 88.885 28.4744 88.2061 28.5423C87.5952 28.5423 86.8485 28.6102 86.0339 28.6102H79.4492V1.45703H84.9478C85.7624 1.45703 86.577 1.45704 87.4594 1.52492C88.3419 1.52492 89.0886 1.59279 89.6317 1.66067C90.7857 1.79644 91.8718 2.00009 92.8222 2.47527C93.7725 2.88257 94.7229 3.56139 95.5375 4.37599C96.7594 5.59788 97.7098 7.15919 98.3207 8.85626C98.9316 10.6212 99.271 12.7256 99.271 15.1694C99.3389 17.0022 99.0674 18.6993 98.6601 20.2606ZM92.8901 11.3001C92.6864 10.0103 92.347 8.92415 91.8039 7.97379C91.3287 7.22708 90.7857 6.68402 90.1748 6.27672C89.4959 5.86942 88.6134 5.73365 87.5273 5.73365H85.0156V24.1299H87.9346C89.6995 24.1299 91.0572 23.4511 91.8718 22.0255C92.6864 20.6 93.1616 18.4956 93.1616 15.5767C93.1616 14.0154 93.0937 12.5898 92.8901 11.3001Z" fill="#007BB8"/>
<path d="M117.87 28.6102H103.547V1.45703H109.113V24.062H118.821L117.87 28.6102Z" fill="#007BB8"/>
<path d="M121.738 28.6102V1.45703H137.216L136.469 5.86942H127.169V12.1825H134.975V16.6628H127.237V23.9263H137.555V28.6102H121.738Z" fill="#007BB8"/>
<path d="M159.685 23.7911C159.141 24.9451 158.395 25.8955 157.444 26.7101C156.494 27.5247 155.272 28.1356 153.914 28.5429C152.557 28.9502 150.996 29.2218 149.298 29.2218C147.737 29.2218 146.176 29.0181 144.547 28.5429C142.917 28.1356 141.424 27.5247 140.066 26.7101L142.103 22.4335C143.393 23.1123 144.615 23.6554 145.769 24.0626C146.923 24.4699 148.212 24.6736 149.57 24.6736C152.761 24.6736 154.322 23.4517 154.322 20.9401C154.322 19.243 153.168 18.089 150.792 17.4101L147.805 16.5955C146.447 16.2561 145.361 15.7809 144.479 15.2379C143.596 14.6948 142.917 14.016 142.442 13.2014C141.696 11.9795 141.288 10.6219 141.288 9.06055C141.288 7.83865 141.492 6.68464 141.967 5.6664C142.442 4.64816 143.121 3.76566 143.936 3.01895C144.818 2.27224 145.836 1.72918 146.99 1.32188C148.212 0.914582 149.502 0.710938 150.928 0.710938C152.625 0.710938 154.254 0.982473 155.815 1.45765C157.377 1.93283 158.802 2.61166 160.024 3.42625L157.444 7.29559C156.223 6.54887 155.068 6.00582 154.118 5.6664C153.168 5.32699 152.15 5.19121 151.131 5.19121C149.977 5.19121 149.095 5.46274 148.416 6.07368C147.737 6.68463 147.33 7.43135 147.33 8.31383C147.33 8.99266 147.533 9.6036 148.009 9.94302C148.416 10.3503 149.231 10.6897 150.385 11.0291L153.643 11.9116C155.883 12.5226 157.58 13.4729 158.734 14.8985C159.888 16.2561 160.499 17.9532 160.499 19.9897C160.499 21.4152 160.228 22.6371 159.685 23.7911Z" fill="#007BB8"/>
<path d="M8.91891 39.4057C8.78315 39.8809 8.57948 40.2203 8.30795 40.6276C8.1043 40.967 7.7649 41.1707 7.49337 41.3743C7.15395 41.578 6.81454 41.7137 6.47512 41.7137C6.33936 41.7137 6.1357 41.7137 5.99994 41.7137C5.79629 41.7137 5.59264 41.7137 5.38899 41.7137H3.48828V34.043H5.04958C5.25323 34.043 5.52476 34.043 5.7963 34.043C6.06783 34.043 6.27147 34.043 6.40724 34.043C6.74665 34.043 7.01818 34.1787 7.28971 34.2466C7.56124 34.3824 7.83277 34.5182 8.03642 34.7897C8.37584 35.1291 8.64738 35.5364 8.85103 36.0795C9.05468 36.5546 9.12255 37.1656 9.12255 37.8444C9.12255 38.5232 9.05468 38.9984 8.91891 39.4057ZM7.28971 36.8941C7.22182 36.5546 7.15394 36.2152 6.95029 35.9437C6.81453 35.74 6.67877 35.5364 6.47512 35.4685C6.27148 35.3327 6.06782 35.3327 5.72841 35.3327H5.04958V40.5597H5.86418C6.40725 40.5597 6.74665 40.3561 7.01818 39.9488C7.28971 39.5415 7.35759 38.9305 7.35759 38.1159C7.42548 37.6408 7.35759 37.2335 7.28971 36.8941Z" fill="#52B057"/>
<path d="M11.6316 35.1956C11.428 35.3993 11.2243 35.4671 10.9528 35.4671C10.6813 35.4671 10.4776 35.3993 10.3418 35.1956C10.1382 34.992 10.0703 34.7883 10.0703 34.5168C10.0703 34.2453 10.1382 34.0416 10.3418 33.838C10.5455 33.6343 10.7491 33.5664 11.0207 33.5664C11.2922 33.5664 11.4959 33.6343 11.6316 33.838C11.8353 34.0416 11.9032 34.2453 11.9032 34.5168C11.9032 34.7883 11.8353 35.0598 11.6316 35.1956ZM10.274 41.7802V36.2139L11.7674 36.0102V41.7802H10.274Z" fill="#52B057"/>
<path d="M17.2005 40.7616C17.0647 41.0331 16.929 41.2368 16.7253 41.3726C16.5217 41.5762 16.2501 41.712 15.9786 41.7799C15.7071 41.8477 15.3677 41.9156 14.9604 41.9156C14.2815 41.9156 13.5348 41.712 12.6523 41.2368L13.1954 40.1507C13.3312 40.2186 13.4669 40.2864 13.6027 40.3543C13.7385 40.4222 13.9421 40.4901 14.0779 40.558C14.2136 40.6259 14.4173 40.6937 14.6209 40.6937C14.8246 40.7616 14.9603 40.7616 15.0961 40.7616C15.2998 40.7616 15.5034 40.6937 15.6392 40.558C15.775 40.4222 15.8428 40.2864 15.8428 40.0828C15.8428 39.8791 15.775 39.7434 15.6392 39.6076C15.5034 39.4718 15.2998 39.4039 14.9604 39.3361L14.2815 39.2003C14.0779 39.1324 13.8742 39.0645 13.6706 38.9967C13.4669 38.8609 13.3312 38.793 13.1954 38.6572C13.0596 38.5215 12.9918 38.3857 12.9239 38.1821C12.856 37.9784 12.856 37.8426 12.856 37.639C12.856 37.3675 12.9239 37.0959 12.9918 36.8923C13.1275 36.6886 13.2633 36.485 13.4669 36.2813C13.6706 36.1456 13.8742 36.0098 14.1458 35.8741C14.4173 35.8062 14.6888 35.7383 15.0282 35.7383C15.5034 35.7383 15.8428 35.8062 16.1822 35.9419C16.5217 36.0777 16.7932 36.1456 17.0647 36.2813L16.5895 37.2996C16.318 37.1638 16.0465 37.028 15.8428 36.9602C15.6392 36.8923 15.4355 36.8923 15.164 36.8923C14.9603 36.8923 14.7567 36.9602 14.6209 37.0281C14.4852 37.0959 14.4173 37.2317 14.4173 37.4354C14.4173 37.5711 14.4852 37.7069 14.5531 37.7748C14.6888 37.8427 14.8246 37.9105 15.0961 37.9784L15.7749 38.1821C15.9786 38.25 16.1144 38.2499 16.2501 38.3178C16.3859 38.3857 16.4538 38.3857 16.5217 38.4536C16.5895 38.5215 16.6574 38.5894 16.7253 38.5894C16.7932 38.6573 16.8611 38.7251 16.8611 38.793C17.0647 39.0645 17.2005 39.404 17.2005 39.7434C17.3363 40.2864 17.2684 40.558 17.2005 40.7616Z" fill="#52B057"/>
<path d="M23.1727 39.6066C23.1727 39.8102 23.1048 40.0817 23.037 40.2854C22.9691 40.489 22.9012 40.6927 22.7654 40.8284C22.6975 40.9642 22.5618 41.1679 22.426 41.3036C22.2224 41.5073 22.0187 41.643 21.7472 41.7788C21.4757 41.9146 21.2041 41.9146 20.9326 41.9146C20.7289 41.9146 20.5253 41.9146 20.3216 41.8467C20.118 41.7788 19.9144 41.7109 19.7786 41.643C19.7786 41.7109 19.7786 41.7788 19.7786 41.8467V42.1182V43.8832L18.353 44.2905V37.7737C18.353 37.5701 18.353 37.4343 18.353 37.2985C18.353 37.1628 18.353 37.027 18.353 36.9591C18.353 36.8912 18.353 36.7555 18.353 36.6876C18.353 36.6197 18.353 36.4839 18.2852 36.3482L19.5749 36.1445C19.5749 36.2803 19.6428 36.3482 19.6428 36.4161C19.6428 36.4839 19.6428 36.5518 19.6428 36.6876C19.7786 36.5518 19.9822 36.4161 20.1859 36.2803C20.4574 36.2124 20.7289 36.1445 21.0005 36.1445C21.2041 36.1445 21.4078 36.1445 21.6114 36.2124C21.8151 36.2803 21.9508 36.3482 22.1545 36.4839C22.2903 36.6197 22.426 36.6876 22.5618 36.8234C22.6975 36.9591 22.7654 37.1628 22.9012 37.3664C22.9691 37.5701 23.1048 37.7737 23.1048 38.0452C23.1727 38.3168 23.1727 38.5883 23.1727 38.9277C23.2406 39.0635 23.1727 39.335 23.1727 39.6066ZM21.5435 38.181C21.5435 37.9774 21.4757 37.7737 21.4078 37.6379C21.272 37.2985 21.0684 37.1628 20.7289 37.1628C20.3216 37.1628 20.0501 37.2985 19.7107 37.5701V40.3533C19.8465 40.4211 19.9144 40.489 20.118 40.5569C20.2538 40.6248 20.3895 40.6927 20.5932 40.6927C20.9326 40.6927 21.2041 40.5569 21.4078 40.2854C21.5435 40.0139 21.6114 39.5387 21.6114 38.9277C21.6114 38.6562 21.6114 38.4525 21.5435 38.181Z" fill="#52B057"/>
<path d="M25.6175 39.4034C25.6175 39.8786 25.7532 40.218 25.9569 40.4896C26.1605 40.7611 26.4321 40.829 26.8394 40.829C27.3146 40.829 27.7897 40.6253 28.2649 40.2859L28.808 41.1684C28.197 41.7115 27.4503 41.9151 26.7036 41.9151C26.2963 41.9151 25.9569 41.8472 25.6175 41.7115C25.2781 41.5757 25.0065 41.372 24.735 41.1005C24.5313 40.829 24.3277 40.5574 24.1919 40.1502C24.0562 39.8107 23.9883 39.4034 23.9883 38.9283C23.9883 38.3852 24.0562 37.9779 24.1241 37.6385C24.2598 37.2991 24.3956 36.9597 24.6671 36.6881C24.9386 36.4166 25.1423 36.213 25.4817 36.1451C25.7532 36.0093 26.0927 35.9414 26.5 35.9414C26.8394 35.9414 27.1109 36.0093 27.4503 36.0772C27.7218 36.2129 27.9934 36.3487 28.1291 36.5524C28.4007 36.8239 28.6043 37.1633 28.6722 37.5706C28.808 37.9779 28.8759 38.4531 28.8759 39.064V39.4034H25.6175ZM27.3145 38.2494C27.3145 38.0458 27.3146 37.8421 27.2467 37.7064C27.2467 37.5706 27.1788 37.4348 27.1109 37.367C26.9751 37.1633 26.7715 37.0275 26.4321 37.0275C26.1605 37.0275 25.9569 37.1633 25.7532 37.367C25.6175 37.5706 25.5496 37.91 25.5496 38.2494H27.3145Z" fill="#52B057"/>
<path d="M32.8795 41.7808V38.1151C32.8795 37.7757 32.8116 37.5721 32.7437 37.4363C32.6758 37.3005 32.5401 37.2327 32.3364 37.2327C32.2006 37.2327 31.997 37.3005 31.8612 37.3684C31.7255 37.4363 31.5218 37.5721 31.3182 37.7078V41.7129H29.8247V37.5721C29.8247 37.3005 29.8247 37.0969 29.7568 36.8932C29.7568 36.6896 29.689 36.4859 29.6211 36.2823L30.9109 35.875C31.0466 36.1465 31.1145 36.3502 31.1145 36.5538C31.2503 36.4859 31.3182 36.4181 31.4539 36.3502C31.5218 36.2823 31.6576 36.2144 31.7933 36.1465C31.9291 36.0786 32.1328 36.0107 32.2685 35.9429C32.4722 35.875 32.6079 35.875 32.8116 35.875C33.151 35.875 33.4225 35.9429 33.6941 36.0786C33.9656 36.2144 34.1014 36.4181 34.1692 36.6896C34.2371 36.8932 34.305 37.1648 34.305 37.5042V41.6451H32.8795V41.7808Z" fill="#52B057"/>
<path d="M39.806 40.7616C39.6702 41.0331 39.5344 41.2368 39.3308 41.3726C39.1271 41.5762 38.8556 41.712 38.5841 41.7799C38.3125 41.8477 37.9731 41.9156 37.5658 41.9156C36.887 41.9156 36.1403 41.712 35.2578 41.2368L35.8009 40.1507C35.9366 40.2186 36.0724 40.2864 36.2082 40.3543C36.3439 40.4222 36.5476 40.4901 36.6834 40.558C36.8191 40.6259 37.0228 40.6937 37.2264 40.6937C37.4301 40.7616 37.5658 40.7616 37.7016 40.7616C37.9052 40.7616 38.1089 40.6937 38.2447 40.558C38.3804 40.4222 38.4483 40.2864 38.4483 40.0828C38.4483 39.8791 38.3804 39.7434 38.2447 39.6076C38.1089 39.4718 37.9052 39.4039 37.5658 39.3361L36.887 39.2003C36.6833 39.1324 36.4797 39.0645 36.2761 38.9967C36.0724 38.8609 35.9366 38.793 35.8009 38.6572C35.6651 38.5215 35.5972 38.3857 35.5293 38.1821C35.4615 37.9784 35.4615 37.8426 35.4615 37.639C35.4615 37.3675 35.5293 37.0959 35.5972 36.8923C35.733 36.6886 35.8688 36.485 36.0724 36.2813C36.2761 36.1456 36.4797 36.0098 36.7512 35.8741C37.0228 35.8062 37.2943 35.7383 37.6337 35.7383C38.1089 35.7383 38.4483 35.8062 38.7877 35.9419C39.1271 36.0777 39.3987 36.1456 39.6702 36.2813L39.195 37.2996C38.9235 37.1638 38.652 37.028 38.4483 36.9602C38.2447 36.8923 38.041 36.8923 37.7695 36.8923C37.5658 36.8923 37.3622 36.9602 37.2264 37.0281C37.0906 37.0959 37.0228 37.2317 37.0228 37.4354C37.0228 37.5711 37.0906 37.7069 37.1585 37.7748C37.2943 37.8427 37.4301 37.9105 37.7016 37.9784L38.3804 38.1821C38.5841 38.25 38.7198 38.2499 38.8556 38.3178C38.9914 38.3857 39.0593 38.3857 39.1271 38.4536C39.195 38.5215 39.2629 38.5894 39.3308 38.5894C39.3987 38.6573 39.4666 38.7251 39.4666 38.793C39.6702 39.0645 39.806 39.404 39.806 39.7434C39.9417 40.2864 39.9417 40.558 39.806 40.7616Z" fill="#52B057"/>
<path d="M42.3152 35.1956C42.1116 35.3993 41.9079 35.4671 41.6364 35.4671C41.3648 35.4671 41.1612 35.3993 41.0254 35.1956C40.8218 34.992 40.7539 34.7883 40.7539 34.5168C40.7539 34.2453 40.8218 34.0416 41.0254 33.838C41.2291 33.6343 41.4327 33.5664 41.7043 33.5664C41.9758 33.5664 42.1794 33.6343 42.3152 33.838C42.5189 34.0416 42.5867 34.2453 42.5867 34.5168C42.5867 34.7883 42.5189 35.0598 42.3152 35.1956ZM40.8897 41.7802V36.2139L42.3831 36.0102V41.7802H40.8897Z" fill="#52B057"/>
<path d="M46.7974 41.7808V38.1151C46.7974 37.7757 46.7295 37.5721 46.6617 37.4363C46.5938 37.3005 46.458 37.2327 46.2544 37.2327C46.1186 37.2327 45.915 37.3005 45.7792 37.3684C45.5755 37.4363 45.4398 37.5721 45.2361 37.7078V41.7129H43.7427V37.5721C43.7427 37.3005 43.7427 37.0969 43.6748 36.8932C43.6748 36.6896 43.6069 36.4859 43.5391 36.2823L44.8288 35.875C44.9646 36.1465 45.0325 36.3502 45.0325 36.5538C45.1682 36.4859 45.2361 36.4181 45.3719 36.3502C45.4398 36.2823 45.5755 36.2144 45.7113 36.1465C45.8471 36.0786 46.0507 36.0107 46.1865 35.9429C46.3901 35.875 46.5259 35.875 46.7295 35.875C47.069 35.875 47.3405 35.9429 47.612 36.0786C47.8836 36.2144 48.0193 36.4181 48.0872 36.6896C48.1551 36.8932 48.223 37.1648 48.223 37.5042V41.6451H46.7974V41.7808Z" fill="#52B057"/>
<path d="M54.7392 37.0281C54.6035 37.0959 54.3998 37.0959 54.1961 37.0959C54.1283 37.0959 54.0604 37.0959 53.9925 37.0959C53.9246 37.0959 53.8567 37.0959 53.7888 37.0959C53.9246 37.2317 53.9925 37.3675 54.0604 37.5032C54.1283 37.639 54.1283 37.8426 54.1283 38.0463C54.1283 38.3178 54.0604 38.5215 53.9925 38.7251C53.8567 38.9288 53.721 39.1324 53.5852 39.2682C53.3816 39.404 53.1779 39.5397 52.9064 39.6076C52.6348 39.6755 52.3633 39.7434 52.0918 39.7434H52.0239C52.0239 39.7434 51.956 39.7434 51.8881 39.7434C51.6845 39.8113 51.5487 39.8791 51.4808 40.0149C51.413 40.0828 51.3451 40.1507 51.3451 40.2186C51.3451 40.2864 51.413 40.3543 51.6166 40.3543H52.4312C52.8385 40.3543 53.1779 40.4222 53.4494 40.4901C53.721 40.558 53.9246 40.6937 54.1283 40.8974C54.4677 41.1689 54.6035 41.5762 54.6035 42.1193C54.6035 42.5944 54.4677 42.9339 54.1283 43.2733C53.8567 43.5448 53.5852 43.7485 53.1779 43.8163C52.7706 43.9521 52.3633 43.9521 51.8881 43.9521C51.4808 43.9521 51.0735 43.8842 50.7341 43.8163C50.3947 43.7485 50.0553 43.5448 49.7838 43.3412C49.4443 43.0696 49.3086 42.7302 49.3086 42.3229C49.3086 42.1872 49.3086 42.0514 49.3765 41.9835C49.4443 41.9156 49.4443 41.8477 49.4443 41.7799H50.802C50.802 41.8477 50.7341 41.9156 50.7341 41.9835C50.7341 42.0514 50.7341 42.1193 50.7341 42.1872C50.7341 42.3908 50.802 42.5944 51.0057 42.7302C51.2093 42.866 51.4808 42.9339 51.8202 42.9339C52.0239 42.9339 52.1597 42.9339 52.3633 42.866C52.4991 42.866 52.6348 42.7981 52.7706 42.7302C52.9064 42.6623 52.9743 42.5944 53.0422 42.4587C53.11 42.3908 53.11 42.255 53.11 42.1193C53.11 41.8477 53.0421 41.712 52.8385 41.5762C52.6348 41.5083 52.3633 41.4404 52.0918 41.4404H51.4808C50.802 41.4404 50.3947 41.3726 50.1232 41.2368C49.9874 41.1689 49.8516 41.101 49.7838 40.9653C49.7159 40.8295 49.648 40.6937 49.648 40.4901C49.648 40.4222 49.648 40.2864 49.648 40.2186C49.648 40.1507 49.7159 40.0149 49.7838 39.947C49.8516 39.8791 49.9874 39.8113 50.1232 39.7434C50.2589 39.6755 50.4626 39.6076 50.6663 39.5397C49.8517 39.3361 49.4443 38.793 49.4443 37.9784C49.4443 37.7069 49.5122 37.4354 49.648 37.1638C49.7838 36.9602 49.9195 36.7565 50.1232 36.5529C50.3268 36.4171 50.5984 36.2813 50.8699 36.1456C51.1414 36.0777 51.4808 36.0098 51.8881 36.0098C52.0239 36.0098 52.2276 36.0098 52.3633 36.0098C52.4991 36.0098 52.7027 36.0777 52.9064 36.1456C53.0421 36.2135 53.1779 36.2135 53.3137 36.2135C53.4494 36.2135 53.5173 36.2135 53.5852 36.2135C53.7889 36.2135 53.9925 36.1456 54.1961 36.0777C54.3998 36.0098 54.6035 35.874 54.7392 35.7383L55.3502 36.6886C55.0786 36.8923 54.875 36.9602 54.7392 37.0281ZM52.3633 37.2996C52.2276 37.1638 51.956 37.0959 51.6845 37.0959C51.413 37.0959 51.2093 37.1638 51.0057 37.2996C50.8699 37.4353 50.802 37.639 50.802 37.9105C50.802 38.1821 50.8699 38.3857 51.0735 38.5215C51.2093 38.6572 51.413 38.7251 51.6845 38.7251C52.2954 38.7251 52.567 38.4536 52.567 37.9105C52.6348 37.7069 52.4991 37.5032 52.3633 37.2996Z" fill="#52B057"/>
<path d="M62.3422 41.7801L61.7991 39.9473H59.559L59.0159 41.7801H57.3867L59.8984 34.1094H61.5954L64.0392 41.7801H62.3422ZM61.3918 38.6575C61.3239 38.4539 61.256 38.3181 61.256 38.1823C61.1882 38.0466 61.1882 37.8429 61.1203 37.7072C61.0524 37.5035 61.0524 37.3678 60.9845 37.1641C60.9845 37.0962 60.9166 36.9605 60.9166 36.8247C60.9166 36.6889 60.8488 36.5532 60.8488 36.3495C60.8488 36.2137 60.7809 36.0101 60.713 35.8064C60.6451 36.0101 60.6451 36.2137 60.5772 36.3495C60.5093 36.4853 60.5093 36.6889 60.4415 36.8247C60.3736 37.0283 60.3736 37.1641 60.3057 37.2999C60.2378 37.5714 60.1699 37.8429 60.102 38.0466C60.0342 38.2502 59.9663 38.4539 59.8984 38.7254H61.3918V38.6575Z" fill="#52B057"/>
<path d="M69.536 39.6066C69.536 39.8102 69.4681 40.0817 69.4002 40.2854C69.3324 40.489 69.2645 40.6927 69.1287 40.8284C69.0609 40.9642 68.9251 41.1679 68.7893 41.3036C68.5857 41.5073 68.382 41.643 68.1105 41.7788C67.839 41.9146 67.5674 41.9146 67.2959 41.9146C67.0922 41.9146 66.8886 41.9146 66.6849 41.8467C66.4813 41.7788 66.2776 41.7109 66.1419 41.643C66.1419 41.7109 66.1419 41.7788 66.1419 41.8467V42.1182V43.8832L64.7163 44.2905V37.7737C64.7163 37.5701 64.7163 37.4343 64.7163 37.2985C64.7163 37.1628 64.7163 37.027 64.7163 36.9591C64.7163 36.8912 64.7163 36.7555 64.7163 36.6876C64.7163 36.6197 64.7163 36.4839 64.6484 36.3482L65.9382 36.1445C65.9382 36.2803 66.0061 36.3482 66.0061 36.4161C66.0061 36.4839 66.0061 36.5518 66.0061 36.6876C66.1419 36.5518 66.3455 36.4161 66.5492 36.2803C66.8207 36.2124 67.0922 36.1445 67.3638 36.1445C67.5674 36.1445 67.7711 36.1445 67.9747 36.2124C68.1784 36.2803 68.3141 36.3482 68.5178 36.4839C68.6535 36.6197 68.7893 36.6876 68.9251 36.8234C69.0608 36.9591 69.1287 37.1628 69.2645 37.3664C69.3324 37.5701 69.4003 37.7737 69.4682 38.0452C69.536 38.3168 69.536 38.5883 69.536 38.9277C69.536 39.0635 69.536 39.335 69.536 39.6066ZM67.9068 38.181C67.9068 37.9774 67.839 37.7737 67.7711 37.6379C67.6353 37.2985 67.4317 37.1628 67.0922 37.1628C66.685 37.1628 66.4134 37.2985 66.074 37.5701V40.3533C66.2098 40.4211 66.2776 40.489 66.4813 40.5569C66.6171 40.6248 66.7528 40.6927 66.9565 40.6927C67.2959 40.6927 67.5674 40.5569 67.7711 40.2854C67.9068 40.0139 67.9747 39.5387 67.9747 38.9277C67.9747 38.6562 67.9747 38.4525 67.9068 38.181Z" fill="#52B057"/>
<path d="M75.5087 39.6066C75.5087 39.8102 75.4408 40.0817 75.3729 40.2854C75.305 40.489 75.2372 40.6927 75.1014 40.8284C75.0335 40.9642 74.8977 41.1679 74.762 41.3036C74.5583 41.5073 74.3547 41.643 74.0831 41.7788C73.8116 41.9146 73.5401 41.9146 73.2685 41.9146C73.0649 41.9146 72.8612 41.9146 72.6576 41.8467C72.4539 41.7788 72.2503 41.7109 72.1145 41.643C72.1145 41.7109 72.1145 41.7788 72.1145 41.8467V42.1182V43.8832L70.689 44.2905V37.7737C70.689 37.5701 70.689 37.4343 70.689 37.2985C70.689 37.1628 70.689 37.027 70.689 36.9591C70.689 36.8912 70.689 36.7555 70.689 36.6876C70.689 36.6197 70.689 36.4839 70.6211 36.3482L71.9109 36.1445C71.9109 36.2803 71.9788 36.3482 71.9788 36.4161C71.9788 36.4839 71.9788 36.5518 71.9788 36.6876C72.1145 36.5518 72.3182 36.4161 72.5218 36.2803C72.7934 36.2124 73.0649 36.1445 73.3364 36.1445C73.5401 36.1445 73.7437 36.1445 73.9474 36.2124C74.151 36.2803 74.2868 36.3482 74.4904 36.4839C74.6262 36.6197 74.762 36.6876 74.8978 36.8234C75.0335 36.9591 75.1014 37.1628 75.2372 37.3664C75.3051 37.5701 75.3729 37.7737 75.4408 38.0452C75.5087 38.3168 75.5087 38.5883 75.5087 38.9277C75.5087 39.0635 75.5087 39.335 75.5087 39.6066ZM73.8795 38.181C73.8795 37.9774 73.8116 37.7737 73.7437 37.6379C73.608 37.2985 73.4043 37.1628 73.0649 37.1628C72.6576 37.1628 72.3861 37.2985 72.0467 37.5701V40.3533C72.1824 40.4211 72.2503 40.489 72.4539 40.5569C72.5897 40.6248 72.7255 40.6927 72.9291 40.6927C73.2685 40.6927 73.5401 40.5569 73.7437 40.2854C73.8795 40.0139 73.9474 39.5387 73.9474 38.9277C73.9474 38.6562 73.8795 38.4525 73.8795 38.181Z" fill="#52B057"/>
<path d="M78.0208 41.917C77.6814 41.917 77.4098 41.8491 77.2062 41.7133C77.0025 41.5775 76.7989 41.3739 76.731 41.1702C76.731 41.1024 76.6631 41.0345 76.6631 40.9666C76.6631 40.8987 76.6631 40.8308 76.5953 40.7629C76.5953 40.6951 76.5953 40.5593 76.5953 40.4235C76.5953 40.2878 76.5953 40.152 76.5953 39.9484V35.7396C76.5953 35.3323 76.5953 35.0608 76.5953 34.7893C76.5953 34.5177 76.5952 34.3141 76.5273 34.0425L78.0208 33.7031C78.0208 33.8389 78.0886 34.0425 78.0886 34.2462C78.0886 34.4498 78.0886 34.7893 78.0886 35.1966V39.6089C78.0886 39.8805 78.0886 40.0162 78.0886 40.2199C78.0886 40.3557 78.0886 40.4914 78.0886 40.5593C78.0886 40.6272 78.0886 40.6951 78.0886 40.7629C78.0886 40.8308 78.0887 40.8308 78.1566 40.8987C78.2244 41.0345 78.2923 41.0345 78.4281 41.0345H78.496H78.5638L78.8354 41.917C78.6317 41.8491 78.3602 41.917 78.0208 41.917Z" fill="#52B057"/>
<path d="M81.0106 35.1956C80.8069 35.3993 80.6033 35.4671 80.3317 35.4671C80.0602 35.4671 79.8565 35.3993 79.7208 35.1956C79.5171 34.992 79.4492 34.7883 79.4492 34.5168C79.4492 34.2453 79.5171 34.0416 79.7208 33.838C79.9244 33.6343 80.1281 33.5664 80.3996 33.5664C80.6711 33.5664 80.8748 33.6343 81.0106 33.838C81.2142 34.0416 81.2821 34.2453 81.2821 34.5168C81.2821 34.7883 81.2142 35.0598 81.0106 35.1956ZM79.6529 41.7802V36.2139L81.1463 36.0102V41.7802H79.6529Z" fill="#52B057"/>
<path d="M86.3704 42.0523C86.1667 41.9844 86.0309 41.9166 85.8952 41.7808C85.7594 41.645 85.6236 41.5093 85.5558 41.3735C85.4879 41.4414 85.42 41.5093 85.3521 41.5093C85.2842 41.5772 85.2164 41.5772 85.1485 41.645C84.877 41.8487 84.4696 41.9845 83.9945 41.9845C83.3835 41.9845 82.9084 41.8487 82.5689 41.5093C82.2295 41.1699 82.0938 40.7626 82.0938 40.2195C82.0938 39.5407 82.2974 39.0655 82.7726 38.7261C83.2478 38.3867 83.9266 38.2509 84.8091 38.2509H84.9448C85.0127 38.2509 85.0806 38.2509 85.0806 38.2509V38.0472C85.0806 37.7078 85.0127 37.5042 84.9448 37.3684C84.877 37.2326 84.6733 37.1648 84.4018 37.1648C84.1981 37.1648 83.9266 37.2326 83.655 37.3005C83.3835 37.4363 83.112 37.5721 82.7726 37.7757L82.1616 36.6896C82.2974 36.6217 82.4332 36.4859 82.5689 36.4181C82.7047 36.3502 82.8405 36.2823 83.0441 36.2144C83.3157 36.0786 83.5872 36.0107 83.8587 35.9429C84.1302 35.875 84.3339 35.875 84.6054 35.875C85.0806 35.875 85.4879 35.9429 85.8273 36.1465C86.1667 36.2823 86.3704 36.5538 86.4383 36.8932C86.4383 36.9611 86.5061 37.029 86.5061 37.0969C86.5061 37.1648 86.5061 37.2326 86.5061 37.3005C86.5061 37.3684 86.5061 37.4363 86.5061 37.5721V37.9794V39.8801C86.5061 40.0159 86.5061 40.1516 86.5061 40.2874C86.5061 40.4232 86.5061 40.491 86.574 40.6268C86.6419 40.6947 86.6419 40.8305 86.7098 40.8983C86.7777 40.9662 86.8456 41.102 86.9813 41.1699L86.3704 42.0523ZM85.0806 39.337C84.5376 39.337 84.1981 39.4049 83.9945 39.5407C83.7908 39.6764 83.723 39.8801 83.723 40.2195C83.723 40.4232 83.7908 40.6268 83.9266 40.7626C84.0624 40.8983 84.1981 40.9662 84.4018 40.9662C84.5376 40.9662 84.6733 40.9662 84.8091 40.8983C84.9448 40.8305 85.0806 40.7626 85.1485 40.6268L85.0806 39.337Z" fill="#52B057"/>
<path d="M91.0552 41.7808V38.1151C91.0552 37.7757 90.9874 37.5721 90.9195 37.4363C90.8516 37.3005 90.7158 37.2327 90.5122 37.2327C90.3764 37.2327 90.1728 37.3005 90.037 37.3684C89.8334 37.4363 89.6976 37.5721 89.4939 37.7078V41.7129H88.0005V37.5721C88.0005 37.3005 88.0005 37.0969 87.9326 36.8932C87.9326 36.6896 87.8648 36.4859 87.7969 36.2823L89.0866 35.875C89.2224 36.1465 89.2903 36.3502 89.2903 36.5538C89.426 36.4859 89.4939 36.4181 89.6297 36.3502C89.6976 36.2823 89.8333 36.2144 89.9691 36.1465C90.1049 36.0786 90.3085 36.0107 90.4443 35.9429C90.6479 35.875 90.7837 35.875 90.9873 35.875C91.3268 35.875 91.5983 35.9429 91.8699 36.0786C92.1414 36.2144 92.2771 36.4181 92.4129 36.6896C92.4808 36.8932 92.5487 37.1648 92.5487 37.5042V41.6451H91.0552V41.7808Z" fill="#52B057"/>
<path d="M97.6394 41.372C97.5715 41.4399 97.5036 41.5078 97.3678 41.5757C97.1642 41.7115 96.9605 41.7793 96.7569 41.8472C96.5532 41.9151 96.2817 41.9151 96.0102 41.9151C95.2635 41.9151 94.6525 41.6436 94.1773 41.1684C93.77 40.6253 93.5664 39.9465 93.5664 38.9961C93.5664 38.3173 93.7022 37.7742 93.9058 37.367C94.1095 36.9597 94.381 36.6202 94.7204 36.3487C94.924 36.2129 95.1277 36.1451 95.3992 36.0772C95.6707 36.0093 95.8744 35.9414 96.146 35.9414C96.3496 35.9414 96.5532 35.9414 96.689 36.0093C96.8927 36.0772 97.0284 36.1451 97.2321 36.213C97.3678 36.2808 97.4357 36.3487 97.5036 36.3487C97.5715 36.4166 97.6394 36.4845 97.7751 36.5524L97.0284 37.5027C96.8927 37.367 96.7569 37.2312 96.5532 37.1633C96.4175 37.0954 96.2817 37.0275 96.078 37.0275C95.7386 37.0275 95.535 37.1633 95.3313 37.5027C95.1956 37.7743 95.1277 38.3173 95.1277 38.9283C95.1277 39.3356 95.1277 39.6071 95.1956 39.8107C95.2635 40.0144 95.3313 40.218 95.3992 40.3538C95.535 40.5574 95.8065 40.6932 96.078 40.6932C96.4175 40.6932 96.7569 40.5575 97.0963 40.218L97.1642 40.1502L97.843 41.0326C97.7751 41.2363 97.7073 41.3042 97.6394 41.372Z" fill="#52B057"/>
<path d="M99.8792 39.4034C99.8792 39.8786 100.015 40.218 100.219 40.4896C100.422 40.7611 100.694 40.829 101.101 40.829C101.576 40.829 102.051 40.6253 102.527 40.2859L103.07 41.1684C102.459 41.7115 101.712 41.9151 100.965 41.9151C100.558 41.9151 100.219 41.8472 99.8792 41.7115C99.5398 41.5757 99.2683 41.372 98.9967 41.1005C98.7931 40.829 98.5894 40.5574 98.4536 40.1502C98.3179 39.8107 98.25 39.4034 98.25 38.9283C98.25 38.3852 98.3179 37.9779 98.3858 37.6385C98.5215 37.2991 98.6573 36.9597 98.9288 36.6881C99.1325 36.4166 99.404 36.213 99.7434 36.1451C100.015 36.0093 100.354 35.9414 100.762 35.9414C101.101 35.9414 101.373 36.0093 101.712 36.0772C101.984 36.2129 102.255 36.3487 102.391 36.5524C102.662 36.8239 102.866 37.1633 102.934 37.5706C103.07 37.9779 103.138 38.4531 103.138 39.064V39.4034H99.8792ZM101.644 38.2494C101.644 38.0458 101.644 37.8421 101.576 37.7064C101.576 37.5706 101.508 37.4348 101.441 37.367C101.305 37.1633 101.101 37.0275 100.762 37.0275C100.49 37.0275 100.286 37.1633 100.083 37.367C99.9471 37.5706 99.8792 37.91 99.8792 38.2494H101.644Z" fill="#52B057"/>
<path d="M111.014 41.7128C110.675 41.8485 110.268 41.9164 109.86 41.9164C108.774 41.9164 107.96 41.577 107.349 40.8303C106.738 40.1515 106.398 39.2011 106.398 38.0471C106.398 37.0967 106.602 36.2822 106.941 35.6712C107.213 35.1281 107.62 34.653 108.163 34.3814C108.706 34.042 109.25 33.9062 109.86 33.9062C110.268 33.9062 110.607 33.9741 110.947 34.042C111.286 34.1778 111.558 34.3136 111.761 34.5172L111.082 35.5355C110.675 35.2639 110.268 35.1282 109.86 35.1282C109.589 35.1282 109.385 35.196 109.114 35.3318C108.91 35.4676 108.706 35.6033 108.571 35.807C108.299 36.2143 108.163 36.8931 108.163 37.7756C108.163 38.3186 108.163 38.7259 108.231 39.0654C108.299 39.4048 108.367 39.6084 108.503 39.88C108.842 40.423 109.317 40.7624 109.996 40.7624C110.2 40.7624 110.471 40.6946 110.675 40.6267C110.879 40.5588 111.082 40.423 111.354 40.2194L112.033 41.1697C111.625 41.4413 111.354 41.6449 111.014 41.7128Z" fill="#52B057"/>
<path d="M117.26 40.1516C117.124 40.491 116.989 40.8304 116.717 41.102C116.513 41.3735 116.242 41.5093 115.97 41.645C115.699 41.7808 115.292 41.8487 114.884 41.8487C114.477 41.8487 114.138 41.7808 113.866 41.645C113.527 41.5093 113.255 41.3056 113.051 41.0341C112.848 40.7626 112.644 40.491 112.508 40.0837C112.373 39.7443 112.305 39.337 112.305 38.8618C112.305 38.3867 112.373 38.0472 112.508 37.6399C112.644 37.3005 112.78 36.9611 113.051 36.6896C113.255 36.4181 113.527 36.2144 113.866 36.0786C114.205 35.9429 114.545 35.875 114.884 35.875C115.699 35.875 116.31 36.1465 116.785 36.7575C116.989 37.029 117.192 37.3005 117.26 37.6399C117.396 37.9794 117.396 38.3867 117.396 38.794C117.464 39.4049 117.396 39.8122 117.26 40.1516ZM115.495 37.3684C115.359 37.1648 115.156 37.0969 114.884 37.0969C114.681 37.0969 114.545 37.1648 114.409 37.2327C114.273 37.3684 114.205 37.5042 114.138 37.6399C114.07 37.7757 114.07 37.9794 114.002 38.183C114.002 38.3867 113.934 38.6582 113.934 38.9297C113.934 39.6086 114.002 40.0837 114.138 40.3553C114.205 40.491 114.341 40.6268 114.477 40.6947C114.613 40.7626 114.748 40.8304 114.884 40.8304C115.224 40.8304 115.427 40.6947 115.563 40.3553C115.699 40.0837 115.767 39.5407 115.767 38.9297C115.835 38.183 115.699 37.6399 115.495 37.3684Z" fill="#52B057"/>
<path d="M121.465 41.7808V38.1151C121.465 37.7757 121.398 37.5721 121.33 37.4363C121.262 37.3005 121.126 37.2327 120.922 37.2327C120.787 37.2327 120.583 37.3005 120.447 37.3684C120.244 37.4363 120.108 37.5721 119.904 37.7078V41.7129H118.411V37.5721C118.411 37.3005 118.411 37.0969 118.343 36.8932C118.343 36.6896 118.275 36.4859 118.207 36.2823L119.497 35.875C119.633 36.1465 119.7 36.3502 119.7 36.5538C119.836 36.4859 119.904 36.4181 120.04 36.3502C120.108 36.2823 120.244 36.2144 120.379 36.1465C120.515 36.0786 120.719 36.0107 120.854 35.9429C121.058 35.875 121.194 35.875 121.398 35.875C121.737 35.875 122.008 35.9429 122.28 36.0786C122.552 36.2144 122.687 36.4181 122.823 36.6896C122.891 36.8932 122.959 37.1648 122.959 37.5042V41.6451H121.465V41.7808Z" fill="#52B057"/>
<path d="M125.948 41.9163C125.541 41.9163 125.269 41.8484 124.998 41.7127C124.726 41.5769 124.523 41.3733 124.455 41.1017C124.455 41.0339 124.387 40.966 124.387 40.966C124.387 40.8981 124.387 40.8302 124.387 40.8302C124.387 40.7623 124.387 40.6944 124.387 40.6266C124.387 40.5587 124.387 40.4229 124.387 40.2872V37.2324H123.844V36.2142H124.387C124.387 35.9426 124.387 35.6711 124.387 35.4675C124.387 35.2638 124.387 35.0602 124.455 34.8565L125.948 34.4492C125.948 34.7208 125.88 34.9923 125.88 35.2638C125.88 35.5353 125.88 35.8748 125.88 36.1463H127.238L126.831 37.1645H125.88V40.0156C125.88 40.355 125.948 40.6266 126.016 40.7623C126.084 40.8981 126.288 40.966 126.559 40.966C126.627 40.966 126.695 40.966 126.763 40.966C126.831 40.966 126.966 40.8981 127.102 40.8981L127.306 41.7806C126.763 41.8484 126.355 41.9163 125.948 41.9163Z" fill="#52B057"/>
<path d="M130.834 37.4348C130.699 37.367 130.563 37.2991 130.427 37.2991C130.088 37.2991 129.816 37.4348 129.545 37.7743V41.7793H128.051V37.9779C128.051 37.5706 128.051 37.2312 127.983 36.9597C127.916 36.6881 127.916 36.4845 127.848 36.2808L129.205 35.9414C129.341 36.1451 129.409 36.4166 129.409 36.756C129.545 36.5524 129.748 36.3487 129.952 36.213C130.156 36.0772 130.427 35.9414 130.699 35.9414C130.834 35.9414 130.902 35.9414 130.97 35.9414C131.038 35.9414 131.106 36.0093 131.242 36.0093L130.834 37.4348Z" fill="#52B057"/>
<path d="M135.792 42.0523C135.656 41.9844 135.453 41.9166 135.317 41.7808C135.181 41.645 135.046 41.5093 134.978 41.3735C134.91 41.4414 134.842 41.5093 134.774 41.5093C134.706 41.5772 134.638 41.5772 134.57 41.645C134.299 41.8487 133.892 41.9845 133.416 41.9845C132.805 41.9845 132.33 41.8487 131.991 41.5093C131.651 41.1699 131.516 40.7626 131.516 40.2195C131.516 39.5407 131.719 39.0655 132.194 38.7261C132.67 38.3867 133.348 38.2509 134.231 38.2509H134.367C134.435 38.2509 134.502 38.2509 134.502 38.2509V38.0472C134.502 37.7078 134.435 37.5042 134.367 37.3684C134.299 37.2326 134.095 37.1648 133.824 37.1648C133.62 37.1648 133.348 37.2326 133.077 37.3005C132.805 37.4363 132.534 37.5721 132.194 37.7757L131.584 36.6896C131.719 36.6217 131.855 36.4859 131.991 36.4181C132.127 36.3502 132.262 36.2823 132.466 36.2144C132.738 36.0786 133.009 36.0107 133.281 35.9429C133.552 35.875 133.756 35.875 134.027 35.875C134.502 35.875 134.91 35.9429 135.249 36.1465C135.589 36.2823 135.792 36.5538 135.86 36.8932C135.86 36.9611 135.928 37.029 135.928 37.0969C135.928 37.1648 135.928 37.2326 135.928 37.3005C135.928 37.3684 135.928 37.4363 135.928 37.5721V37.9794V39.8801C135.928 40.0159 135.928 40.1516 135.928 40.2874C135.928 40.4232 135.928 40.491 135.996 40.6268C136.064 40.6947 136.064 40.8305 136.132 40.8983C136.2 40.9662 136.267 41.102 136.403 41.1699L135.792 42.0523ZM134.502 39.337C133.959 39.337 133.62 39.4049 133.416 39.5407C133.213 39.6764 133.145 39.8801 133.145 40.2195C133.145 40.4232 133.213 40.6268 133.348 40.7626C133.484 40.8983 133.62 40.9662 133.824 40.9662C133.959 40.9662 134.095 40.9662 134.231 40.8983C134.367 40.8305 134.502 40.7626 134.57 40.6268L134.502 39.337Z" fill="#52B057"/>
<path d="M141.221 41.372C141.154 41.4399 141.086 41.5078 140.95 41.5757C140.746 41.7115 140.543 41.7793 140.339 41.8472C140.135 41.9151 139.864 41.9151 139.592 41.9151C138.846 41.9151 138.235 41.6436 137.759 41.1684C137.352 40.6253 137.148 39.9465 137.148 38.9961C137.148 38.3173 137.284 37.7742 137.488 37.367C137.692 36.9597 137.963 36.6202 138.302 36.3487C138.506 36.2129 138.71 36.1451 138.981 36.0772C139.253 36.0093 139.456 35.9414 139.728 35.9414C139.932 35.9414 140.135 35.9414 140.271 36.0093C140.475 36.0772 140.61 36.1451 140.814 36.213C140.95 36.2808 141.018 36.3487 141.086 36.3487C141.154 36.4166 141.221 36.4845 141.357 36.5524L140.61 37.5027C140.475 37.367 140.339 37.2312 140.135 37.1633C140 37.0954 139.864 37.0275 139.66 37.0275C139.321 37.0275 139.117 37.1633 138.913 37.5027C138.778 37.7743 138.71 38.3173 138.71 38.9283C138.71 39.3356 138.71 39.6071 138.778 39.8107C138.846 40.0144 138.913 40.218 138.981 40.3538C139.117 40.5574 139.389 40.6932 139.66 40.6932C140 40.6932 140.339 40.5575 140.678 40.218L140.746 40.1502L141.425 41.0326C141.357 41.2363 141.289 41.3042 141.221 41.372Z" fill="#52B057"/>
<path d="M144.14 41.9163C143.732 41.9163 143.461 41.8484 143.189 41.7127C142.918 41.5769 142.714 41.3733 142.646 41.1017C142.646 41.0339 142.578 40.966 142.578 40.966C142.578 40.8981 142.578 40.8302 142.578 40.8302C142.578 40.7623 142.578 40.6944 142.578 40.6266C142.578 40.5587 142.578 40.4229 142.578 40.2872V37.2324H142.035V36.2142H142.578C142.578 35.9426 142.578 35.6711 142.578 35.4675C142.578 35.2638 142.578 35.0602 142.646 34.8565L144.14 34.4492C144.14 34.7208 144.072 34.9923 144.072 35.2638C144.072 35.5353 144.072 35.8748 144.072 36.1463H145.429L145.022 37.1645H144.072V40.0156C144.072 40.355 144.14 40.6266 144.207 40.7623C144.275 40.8981 144.479 40.966 144.75 40.966C144.818 40.966 144.886 40.966 144.954 40.966C145.022 40.966 145.158 40.8981 145.294 40.8981L145.497 41.7806C144.886 41.8484 144.547 41.9163 144.14 41.9163Z" fill="#52B057"/>
<path d="M150.588 40.1516C150.453 40.491 150.317 40.8304 150.045 41.102C149.842 41.3735 149.57 41.5093 149.298 41.645C149.027 41.7808 148.62 41.8487 148.212 41.8487C147.805 41.8487 147.466 41.7808 147.194 41.645C146.855 41.5093 146.583 41.3056 146.38 41.0341C146.176 40.7626 145.972 40.491 145.836 40.0837C145.701 39.7443 145.633 39.337 145.633 38.8618C145.633 38.3867 145.701 38.0472 145.836 37.6399C145.972 37.3005 146.108 36.9611 146.38 36.6896C146.583 36.4181 146.855 36.2144 147.194 36.0786C147.534 35.9429 147.873 35.875 148.212 35.875C149.027 35.875 149.638 36.1465 150.113 36.7575C150.317 37.029 150.52 37.3005 150.588 37.6399C150.724 37.9794 150.724 38.3867 150.724 38.794C150.792 39.4049 150.724 39.8122 150.588 40.1516ZM148.891 37.3684C148.755 37.1648 148.552 37.0969 148.28 37.0969C148.077 37.0969 147.941 37.1648 147.805 37.2327C147.669 37.3684 147.601 37.5042 147.534 37.6399C147.466 37.7757 147.466 37.9794 147.398 38.183C147.398 38.3867 147.33 38.6582 147.33 38.9297C147.33 39.6086 147.398 40.0837 147.534 40.3553C147.601 40.491 147.737 40.6268 147.873 40.6947C148.009 40.7626 148.144 40.8304 148.28 40.8304C148.62 40.8304 148.823 40.6947 148.959 40.3553C149.095 40.0837 149.163 39.5407 149.163 38.9297C149.163 38.183 149.095 37.6399 148.891 37.3684Z" fill="#52B057"/>
<path d="M154.663 37.4348C154.527 37.367 154.391 37.2991 154.255 37.2991C153.916 37.2991 153.644 37.4348 153.373 37.7743V41.7793H151.879V37.9779C151.879 37.5706 151.879 37.2312 151.812 36.9597C151.744 36.6881 151.744 36.4845 151.676 36.2808L153.033 35.9414C153.169 36.1451 153.237 36.4166 153.237 36.756C153.373 36.5524 153.576 36.3487 153.78 36.213C153.984 36.0772 154.255 35.9414 154.527 35.9414C154.663 35.9414 154.73 35.9414 154.798 35.9414C154.866 35.9414 154.934 36.0093 155.07 36.0093L154.663 37.4348Z" fill="#52B057"/>
<path d="M159.618 40.7616C159.483 41.0331 159.347 41.2368 159.143 41.3726C158.94 41.5762 158.668 41.712 158.397 41.7799C158.125 41.8477 157.786 41.9156 157.378 41.9156C156.7 41.9156 155.953 41.712 155.07 41.2368L155.613 40.1507C155.749 40.2186 155.885 40.2864 156.021 40.3543C156.156 40.4222 156.36 40.4901 156.496 40.558C156.632 40.6259 156.835 40.6937 156.971 40.6937C157.175 40.7616 157.31 40.7616 157.446 40.7616C157.65 40.7616 157.854 40.6937 157.989 40.558C158.125 40.4222 158.193 40.2864 158.193 40.0828C158.193 39.8791 158.125 39.7434 157.989 39.6076C157.854 39.4718 157.65 39.4039 157.31 39.3361L156.632 39.2003C156.428 39.1324 156.224 39.0645 156.021 38.9967C155.817 38.8609 155.681 38.793 155.546 38.6572C155.41 38.5215 155.342 38.3857 155.342 38.1821C155.274 37.9784 155.274 37.8426 155.274 37.639C155.274 37.3675 155.342 37.0959 155.41 36.8923C155.545 36.6886 155.681 36.485 155.885 36.2813C156.089 36.1456 156.292 36.0098 156.564 35.8741C156.835 35.8062 157.107 35.7383 157.446 35.7383C157.921 35.7383 158.261 35.8062 158.6 35.9419C158.94 36.0777 159.211 36.1456 159.483 36.2813L159.008 37.2996C158.736 37.1638 158.464 37.028 158.261 36.9602C158.057 36.8923 157.854 36.8923 157.582 36.8923C157.31 36.8923 157.175 36.9602 157.039 37.0281C156.903 37.0959 156.835 37.2317 156.835 37.4354C156.835 37.5711 156.903 37.7069 156.971 37.7748C157.107 37.8427 157.243 37.9105 157.514 37.9784L158.193 38.1821C158.397 38.25 158.532 38.2499 158.668 38.3178C158.804 38.3857 158.872 38.3857 158.94 38.4536C159.008 38.5215 159.075 38.5894 159.143 38.5894C159.211 38.6573 159.279 38.7251 159.279 38.793C159.483 39.0645 159.618 39.404 159.618 39.7434C159.822 40.2864 159.754 40.558 159.618 40.7616Z" fill="#52B057"/>
</svg>
