<svg width="200" height="55" viewBox="0 0 236 65" fill="none" xmlns="http://www.w3.org/2000/svg">
<path d="M38.3 42.0633H29.5L25.9 25.7633C25.6 24.4633 25.3 23.1633 25.1 21.8633C24.9 20.5633 24.7 19.4633 24.6 18.3633C24.4 17.2633 24.3 16.3633 24.2 15.6633C24.1 14.9633 24 14.3633 24 14.1633C23.8 15.4633 23.7 16.6633 23.5 17.7633C23.3 18.8633 23.1 20.0633 22.9 21.4633C22.7 22.8633 22.4 24.2633 22.1 25.7633L18.8 42.1633H9.59998L0 1.86328H8.5L12 17.6633C12.4 19.5633 12.7 21.2633 13 22.8633C13.3 24.4633 13.5 25.8633 13.7 27.0633C13.9 28.2633 14 29.4633 14.2 30.8633C14.2 30.4633 14.3 29.8633 14.4 28.9633C14.5 28.0633 14.7 27.0633 14.8 25.9633C15 24.7633 15.2 23.5633 15.4 22.1633C15.6 20.7633 15.9 19.4633 16.2 18.0633L19.8 1.86328H28.6L32.3 19.7633C32.5 20.6633 32.7 21.7633 32.9 22.9633C33.1 24.1633 33.3 25.3633 33.4 26.4633C33.6 27.5633 33.8 28.8633 34 30.3633C34 30.0633 34.1 29.3633 34.3 28.3633C34.5 27.2633 34.6 26.0633 34.8 24.7633C35 23.4633 35.2 22.0633 35.5 20.6633C35.7 19.2633 36 18.0633 36.2 17.0633L39.5 1.86328H48L38.3 42.0633Z" fill="white"/>
<path d="M70.4016 41.7656L67.6016 32.2656H55.9016L53.1016 41.7656H44.6016L57.7015 1.76562H66.4016L79.0016 41.7656H70.4016ZM65.7015 25.5656C65.4015 24.5656 65.1016 23.7656 64.9016 22.9656C64.7015 22.1656 64.5015 21.3656 64.2015 20.3656C63.9015 19.3656 63.7016 18.4656 63.5016 17.4656C63.4016 16.9656 63.2016 16.3656 63.1016 15.5656C62.9016 14.7656 62.8016 13.9656 62.6016 13.1656C62.4016 12.3656 62.2015 11.4656 61.9016 10.3656C61.6016 11.3656 61.4015 12.2656 61.2015 13.0656C61.0015 13.8656 60.8016 14.6656 60.6016 15.5656C60.4016 16.4656 60.2016 17.2656 60.0016 17.9656C59.6016 19.4656 59.3016 20.6656 59.0016 21.7656C58.7016 22.8656 58.3015 24.0656 57.9016 25.3656H65.7015V25.5656Z" fill="white"/>
<path d="M102.501 41.7633C102.101 41.0633 101.801 40.5633 101.501 40.0633C101.201 39.5633 100.901 39.0633 100.601 38.5633C100.301 38.0633 100.001 37.5633 99.7007 37.0633C99.4007 36.5633 99.1007 35.8633 98.7007 35.2633C97.7007 33.4633 96.9007 31.9633 96.2007 30.7633C95.5007 29.5633 94.9008 28.6633 94.4008 27.8633C93.9008 27.1633 93.5008 26.5633 93.1008 26.2633C92.7008 25.8633 92.4008 25.6633 92.0008 25.4633C91.6008 25.2633 91.2007 25.1633 90.7007 25.1633V41.8633H82.8008V1.86328H97.7007C99.5007 1.86328 101.101 2.16327 102.501 2.66327C103.901 3.26327 105.201 4.06326 106.201 5.06326C107.201 6.06326 108.001 7.36328 108.601 8.76328C109.201 10.1633 109.401 11.7633 109.401 13.5633C109.401 15.0633 109.201 16.4633 108.701 17.7633C108.201 19.0633 107.601 20.2633 106.801 21.2633C106.001 22.2633 105.001 23.0633 104.001 23.6633C102.901 24.2633 101.801 24.5633 100.501 24.5633C100.901 24.8633 101.201 25.1633 101.401 25.3633C101.601 25.5633 101.801 25.8633 102.101 26.2633C102.601 26.8633 103.201 27.7633 104.001 28.9633C104.801 30.1633 105.601 31.5633 106.501 32.9633C107.401 34.3633 108.201 35.7633 109.001 37.1633C109.801 38.5633 110.401 39.6633 110.901 40.4633C111.401 41.2633 111.601 41.7633 111.701 41.8633H102.501V41.7633ZM98.3008 8.86328C97.8008 8.66328 97.2008 8.56329 96.4008 8.46329C95.6008 8.36329 94.7007 8.36328 93.7007 8.36328H90.8008V19.1633H93.5008C95.2008 19.1633 96.5008 19.0633 97.4008 18.8633C98.3008 18.6633 99.0008 18.3633 99.5008 17.8633C100.501 16.8633 101.101 15.5633 101.101 13.8633C101.201 11.1633 100.201 9.56328 98.3008 8.86328Z" fill="white"/>
<path d="M144.601 29.4656C143.901 31.7656 142.901 33.8656 141.601 35.6656C140.401 37.3656 138.901 38.6656 137.201 39.6656C135.501 40.6656 133.701 41.2656 131.801 41.4656C131.001 41.5656 130.201 41.5656 129.201 41.6656C128.301 41.6656 127.201 41.7656 126.001 41.7656H116.301V1.76562H124.401C125.601 1.76562 126.801 1.76563 128.101 1.86563C129.401 1.86563 130.501 1.96561 131.301 2.06561C133.001 2.26561 134.601 2.56563 136.001 3.26562C137.401 3.86562 138.801 4.86561 140.001 6.06561C141.801 7.86561 143.201 10.1656 144.101 12.6656C145.001 15.2656 145.501 18.3656 145.501 21.9656C145.601 24.6656 145.201 27.1656 144.601 29.4656ZM136.101 16.2656C135.801 14.3656 135.301 12.7656 134.501 11.3656C133.801 10.2656 133.001 9.46563 132.101 8.86563C131.101 8.26563 129.801 8.06561 128.201 8.06561H124.501V35.1656H128.801C131.401 35.1656 133.401 34.1656 134.601 32.0656C135.801 29.9656 136.501 26.8656 136.501 22.5656C136.501 20.2656 136.401 18.1656 136.101 16.2656Z" fill="white"/>
<path d="M172.901 41.7656H151.801V1.76562H160.001V35.0656H174.301L172.901 41.7656Z" fill="white"/>
<path d="M178.602 41.7656V1.76562H201.402L200.302 8.26562H186.602V17.5656H198.102V24.1656H186.702V34.8656H201.902V41.7656H178.602Z" fill="white"/>
<path d="M234.502 34.6641C233.702 36.3641 232.602 37.7641 231.202 38.9641C229.802 40.1641 228.002 41.0641 226.002 41.6641C224.002 42.2641 221.702 42.6641 219.202 42.6641C216.902 42.6641 214.602 42.3641 212.202 41.6641C209.802 41.0641 207.602 40.1641 205.602 38.9641L208.602 32.6641C210.502 33.6641 212.302 34.4641 214.002 35.0641C215.702 35.6641 217.602 35.9641 219.602 35.9641C224.302 35.9641 226.602 34.1641 226.602 30.4641C226.602 27.9641 224.902 26.2641 221.402 25.2641L217.002 24.0641C215.002 23.5641 213.402 22.8641 212.102 22.0641C210.802 21.2641 209.802 20.2641 209.102 19.0641C208.002 17.2641 207.402 15.2641 207.402 12.9641C207.402 11.1641 207.702 9.46408 208.402 7.96408C209.102 6.46408 210.102 5.16406 211.302 4.06406C212.602 2.96406 214.102 2.16406 215.802 1.56406C217.602 0.964056 219.502 0.664062 221.602 0.664062C224.102 0.664062 226.502 1.06407 228.802 1.76407C231.102 2.46407 233.202 3.46406 235.002 4.66406L231.202 10.3641C229.402 9.26407 227.702 8.46408 226.302 7.96408C224.902 7.46408 223.402 7.26407 221.902 7.26407C220.202 7.26407 218.902 7.66406 217.902 8.56406C216.902 9.46406 216.302 10.5641 216.302 11.8641C216.302 12.8641 216.602 13.7641 217.202 14.2641C217.802 14.8641 219.002 15.3641 220.702 15.8641L225.502 17.1641C228.802 18.0641 231.302 19.4641 233.002 21.5641C234.702 23.5641 235.602 26.0641 235.602 29.0641C235.702 31.1641 235.302 32.9641 234.502 34.6641Z" fill="white"/>
<path d="M12.3984 57.6656C12.1984 58.3656 11.8985 58.8656 11.4985 59.4656C11.1985 59.9656 10.6985 60.2656 10.2985 60.5656C9.79846 60.8656 9.29846 61.0656 8.79846 61.0656C8.59846 61.0656 8.29845 61.0656 8.09845 61.0656C7.79845 61.0656 7.49843 61.0656 7.19843 61.0656H4.39844V49.7656H6.69843C6.99843 49.7656 7.39846 49.7656 7.79846 49.7656C8.19846 49.7656 8.49843 49.7656 8.69843 49.7656C9.19843 49.7656 9.59847 49.9656 9.99847 50.0656C10.3985 50.2656 10.7984 50.4656 11.0984 50.8656C11.5984 51.3656 11.9985 51.9656 12.2985 52.7656C12.5985 53.4656 12.6984 54.3656 12.6984 55.3656C12.6984 56.3656 12.5984 57.0656 12.3984 57.6656ZM9.99847 53.9656C9.89847 53.4656 9.79847 52.9656 9.49847 52.5656C9.29847 52.2656 9.09846 51.9656 8.79846 51.8656C8.49846 51.6656 8.19843 51.6656 7.69843 51.6656H6.69843V59.3656H7.89844C8.69844 59.3656 9.19845 59.0656 9.59845 58.4656C9.99845 57.8656 10.0984 56.9656 10.0984 55.7656C10.1984 55.0656 10.0985 54.4656 9.99847 53.9656Z" fill="white"/>
<path d="M16.4016 51.4625C16.1016 51.7625 15.8016 51.8625 15.4016 51.8625C15.0016 51.8625 14.7016 51.7625 14.5016 51.4625C14.2016 51.1625 14.1016 50.8625 14.1016 50.4625C14.1016 50.0625 14.2016 49.7625 14.5016 49.4625C14.8016 49.1625 15.1016 49.0625 15.5016 49.0625C15.9016 49.0625 16.2016 49.1625 16.4016 49.4625C16.7016 49.7625 16.8016 50.0625 16.8016 50.4625C16.8016 50.8625 16.7016 51.2625 16.4016 51.4625ZM14.4016 61.1625V52.9625L16.6016 52.6625V61.1625H14.4016Z" fill="white"/>
<path d="M24.5984 59.6656C24.3984 60.0656 24.1984 60.3656 23.8984 60.5656C23.5984 60.8656 23.1985 61.0656 22.7985 61.1656C22.3985 61.2656 21.8985 61.3656 21.2985 61.3656C20.2985 61.3656 19.1984 61.0656 17.8984 60.3656L18.6984 58.7656C18.8984 58.8656 19.0985 58.9656 19.2985 59.0656C19.4985 59.1656 19.7985 59.2656 19.9985 59.3656C20.1985 59.4656 20.4985 59.5656 20.7985 59.5656C21.0985 59.6656 21.2985 59.6656 21.4985 59.6656C21.7985 59.6656 22.0985 59.5656 22.2985 59.3656C22.4985 59.1656 22.5984 58.9656 22.5984 58.6656C22.5984 58.3656 22.4985 58.1656 22.2985 57.9656C22.0985 57.7656 21.7985 57.6656 21.2985 57.5656L20.2985 57.3656C19.9985 57.2656 19.6984 57.1656 19.3984 57.0656C19.0984 56.8656 18.8984 56.7656 18.6984 56.5656C18.4984 56.3656 18.3984 56.1656 18.3984 55.8656C18.2984 55.5656 18.2985 55.3656 18.2985 55.0656C18.2985 54.6656 18.3985 54.2656 18.4985 53.9656C18.6985 53.6656 18.8984 53.3656 19.1984 53.0656C19.4984 52.8656 19.7984 52.6656 20.1984 52.4656C20.5984 52.3656 20.9985 52.2656 21.4985 52.2656C22.1985 52.2656 22.6984 52.3656 23.1984 52.5656C23.6984 52.7656 24.0985 52.8656 24.4985 53.0656L23.7985 54.5656C23.3985 54.3656 22.9984 54.1656 22.6984 54.0656C22.3984 53.9656 22.0984 53.9656 21.6984 53.9656C21.2984 53.9656 21.0984 54.0656 20.8984 54.1656C20.6984 54.2656 20.5984 54.4656 20.5984 54.7656C20.5984 54.9656 20.6985 55.1656 20.7985 55.2656C20.9985 55.3656 21.1984 55.4656 21.5984 55.5656L22.5984 55.8656C22.8984 55.9656 23.0985 55.9656 23.2985 56.0656C23.4985 56.1656 23.5984 56.1656 23.6984 56.2656C23.7984 56.3656 23.8985 56.4656 23.9985 56.4656C24.0985 56.5656 24.1984 56.6656 24.1984 56.7656C24.4984 57.1656 24.6984 57.6656 24.6984 58.1656C24.7984 58.9656 24.6984 59.3656 24.5984 59.6656Z" fill="white"/>
<path d="M33.3992 57.9633C33.3992 58.2633 33.2992 58.6633 33.1992 58.9633C33.0992 59.2633 32.9993 59.5633 32.7993 59.7633C32.6993 59.9633 32.4993 60.2633 32.2993 60.4633C31.9993 60.7633 31.6993 60.9633 31.2993 61.1633C30.8993 61.3633 30.4992 61.3633 30.0992 61.3633C29.7992 61.3633 29.4992 61.3633 29.1992 61.2633C28.8992 61.1633 28.5992 61.0633 28.3992 60.9633C28.3992 61.0633 28.3992 61.1633 28.3992 61.2633V61.6633V64.2633L26.2993 64.8633V55.2633C26.2993 54.9633 26.2993 54.7633 26.2993 54.5633C26.2993 54.3633 26.2993 54.1633 26.2993 54.0633C26.2993 53.9633 26.2993 53.7633 26.2993 53.6633C26.2993 53.5633 26.2992 53.3633 26.1992 53.1633L28.0992 52.8633C28.0992 53.0633 28.1992 53.1633 28.1992 53.2633C28.1992 53.3633 28.1992 53.4633 28.1992 53.6633C28.3992 53.4633 28.6993 53.2633 28.9993 53.0633C29.3993 52.9633 29.7992 52.8633 30.1992 52.8633C30.4992 52.8633 30.7992 52.8633 31.0992 52.9633C31.3992 53.0633 31.5992 53.1633 31.8992 53.3633C32.0992 53.5633 32.2993 53.6633 32.4993 53.8633C32.6993 54.0633 32.7993 54.3633 32.9993 54.6633C33.0993 54.9633 33.1993 55.2633 33.2993 55.6633C33.3993 56.0633 33.3992 56.4633 33.3992 56.9633C33.4992 57.1633 33.3992 57.5633 33.3992 57.9633ZM30.9993 55.8633C30.9993 55.5633 30.8993 55.2633 30.7993 55.0633C30.5993 54.5633 30.2993 54.3633 29.7993 54.3633C29.1993 54.3633 28.7993 54.5633 28.2993 54.9633V59.0633C28.4993 59.1633 28.5992 59.2633 28.8992 59.3633C29.0992 59.4633 29.2992 59.5633 29.5992 59.5633C30.0992 59.5633 30.4993 59.3633 30.7993 58.9633C30.9993 58.5633 31.0992 57.8633 31.0992 56.9633C31.0992 56.5633 31.0993 56.2633 30.9993 55.8633Z" fill="white"/>
<path d="M37.0016 57.6625C37.0016 58.3625 37.2016 58.8625 37.5016 59.2625C37.8016 59.6625 38.2016 59.7625 38.8016 59.7625C39.5016 59.7625 40.2016 59.4625 40.9016 58.9625L41.7015 60.2625C40.8015 61.0625 39.7016 61.3625 38.6016 61.3625C38.0016 61.3625 37.5016 61.2625 37.0016 61.0625C36.5016 60.8625 36.1015 60.5625 35.7015 60.1625C35.4015 59.7625 35.1016 59.3625 34.9016 58.7625C34.7016 58.2625 34.6016 57.6625 34.6016 56.9625C34.6016 56.1625 34.7016 55.5625 34.8016 55.0625C35.0016 54.5625 35.2016 54.0625 35.6016 53.6625C35.9016 53.2625 36.3016 52.9625 36.8016 52.8625C37.2016 52.6625 37.7016 52.5625 38.3016 52.5625C38.8016 52.5625 39.2015 52.6625 39.7015 52.7625C40.1015 52.9625 40.5015 53.1625 40.7015 53.4625C41.1015 53.8625 41.4016 54.3625 41.5016 54.9625C41.7016 55.5625 41.8016 56.2625 41.8016 57.1625V57.6625H37.0016ZM39.5016 55.9625C39.5016 55.6625 39.5016 55.3625 39.4016 55.1625C39.4016 54.9625 39.3015 54.7625 39.2015 54.6625C39.0015 54.3625 38.7015 54.1625 38.2015 54.1625C37.8015 54.1625 37.5015 54.3625 37.2015 54.6625C37.0015 54.9625 36.9016 55.4625 36.9016 55.9625H39.5016Z" fill="white"/>
<path d="M47.6984 61.1648V55.7648C47.6984 55.2648 47.5985 54.9648 47.4985 54.7648C47.3985 54.5648 47.1984 54.4648 46.8984 54.4648C46.6984 54.4648 46.3984 54.5648 46.1984 54.6648C45.8984 54.7648 45.6984 54.9648 45.3984 55.1648V61.0648H43.1984V54.9648C43.1984 54.5648 43.1984 54.2648 43.0984 53.9648C42.9984 53.6648 42.9984 53.3648 42.8984 53.0648L44.7985 52.4648C44.9985 52.8648 45.0984 53.1648 45.0984 53.4648C45.2984 53.3648 45.3984 53.2648 45.5984 53.1648C45.6984 53.0648 45.8984 52.9648 46.0984 52.8648C46.2984 52.7648 46.5985 52.6648 46.7985 52.5648C47.0985 52.4648 47.2984 52.4648 47.5984 52.4648C48.0984 52.4648 48.4984 52.5648 48.8984 52.7648C49.2984 52.9648 49.4984 53.2648 49.6984 53.6648C49.7984 53.9648 49.8984 54.3648 49.8984 54.8648V60.9648H47.6984V61.1648Z" fill="white"/>
<path d="M57.8992 59.6656C57.6992 60.0656 57.4992 60.3656 57.1992 60.5656C56.8992 60.8656 56.4992 61.0656 56.0992 61.1656C55.6992 61.2656 55.1992 61.3656 54.5992 61.3656C53.5992 61.3656 52.4992 61.0656 51.1992 60.3656L51.9993 58.7656C52.1993 58.8656 52.3992 58.9656 52.5992 59.0656C52.7992 59.1656 53.0993 59.2656 53.2993 59.3656C53.4993 59.4656 53.7993 59.5656 53.9993 59.5656C54.2993 59.6656 54.4992 59.6656 54.6992 59.6656C54.9992 59.6656 55.2993 59.5656 55.4993 59.3656C55.6993 59.1656 55.7993 58.9656 55.7993 58.6656C55.7993 58.3656 55.6993 58.1656 55.4993 57.9656C55.2993 57.7656 54.9993 57.6656 54.4993 57.5656L53.4993 57.3656C53.1993 57.2656 52.8992 57.1656 52.5992 57.0656C52.2992 56.8656 52.0992 56.7656 51.8992 56.5656C51.6992 56.3656 51.5993 56.1656 51.4993 55.8656C51.3993 55.5656 51.3992 55.3656 51.3992 55.0656C51.3992 54.6656 51.4992 54.2656 51.5992 53.9656C51.7992 53.6656 51.9993 53.3656 52.2993 53.0656C52.5993 52.8656 52.8993 52.6656 53.2993 52.4656C53.6993 52.3656 54.0992 52.2656 54.5992 52.2656C55.2992 52.2656 55.7993 52.3656 56.2993 52.5656C56.7993 52.7656 57.1992 52.8656 57.5992 53.0656L56.8992 54.5656C56.4992 54.3656 56.0993 54.1656 55.7993 54.0656C55.4993 53.9656 55.1993 53.9656 54.7993 53.9656C54.3993 53.9656 54.1993 54.0656 53.9993 54.1656C53.7993 54.2656 53.6992 54.4656 53.6992 54.7656C53.6992 54.9656 53.7992 55.1656 53.8992 55.2656C54.0992 55.3656 54.2992 55.4656 54.6992 55.5656L55.6992 55.8656C55.9992 55.9656 56.1992 55.9656 56.3992 56.0656C56.5992 56.1656 56.6993 56.1656 56.7993 56.2656C56.8993 56.3656 56.9992 56.4656 57.0992 56.4656C57.1992 56.5656 57.2993 56.6656 57.2993 56.7656C57.5993 57.1656 57.7993 57.6656 57.7993 58.1656C58.0993 58.9656 58.0992 59.3656 57.8992 59.6656Z" fill="white"/>
<path d="M61.6008 51.4625C61.3008 51.7625 61.0008 51.8625 60.6008 51.8625C60.2008 51.8625 59.9007 51.7625 59.7007 51.4625C59.4007 51.1625 59.3008 50.8625 59.3008 50.4625C59.3008 50.0625 59.4007 49.7625 59.7007 49.4625C60.0007 49.1625 60.3007 49.0625 60.7007 49.0625C61.1007 49.0625 61.4008 49.1625 61.6008 49.4625C61.9008 49.7625 62.0008 50.0625 62.0008 50.4625C62.0008 50.8625 61.9008 51.2625 61.6008 51.4625ZM59.5008 61.1625V52.9625L61.7007 52.6625V61.1625H59.5008Z" fill="white"/>
<path d="M68.1984 61.1648V55.7648C68.1984 55.2648 68.0985 54.9648 67.9985 54.7648C67.8985 54.5648 67.6984 54.4648 67.3984 54.4648C67.1984 54.4648 66.8984 54.5648 66.6984 54.6648C66.3984 54.7648 66.1984 54.9648 65.8984 55.1648V61.0648H63.6984V54.9648C63.6984 54.5648 63.6984 54.2648 63.5984 53.9648C63.4984 53.6648 63.4984 53.3648 63.3984 53.0648L65.2985 52.4648C65.4985 52.8648 65.5984 53.1648 65.5984 53.4648C65.7984 53.3648 65.8984 53.2648 66.0984 53.1648C66.1984 53.0648 66.3984 52.9648 66.5984 52.8648C66.7984 52.7648 67.0985 52.6648 67.2985 52.5648C67.4985 52.4648 67.7984 52.4648 68.0984 52.4648C68.5984 52.4648 68.9984 52.5648 69.3984 52.7648C69.7984 52.9648 69.9984 53.2648 70.0984 53.6648C70.1984 53.9648 70.2985 54.3648 70.2985 54.8648V60.9648H68.1984V61.1648Z" fill="white"/>
<path d="M79.8984 54.1641C79.6984 54.2641 79.3984 54.2641 79.0984 54.2641C78.9984 54.2641 78.8985 54.2641 78.7985 54.2641C78.6985 54.2641 78.5985 54.2641 78.4985 54.2641C78.6985 54.4641 78.7984 54.6641 78.8984 54.8641C78.9984 55.0641 78.9985 55.3641 78.9985 55.5641C78.9985 55.9641 78.8985 56.2641 78.7985 56.5641C78.5985 56.8641 78.3984 57.1641 78.1984 57.3641C77.8984 57.5641 77.5984 57.7641 77.1984 57.8641C76.7984 57.9641 76.3985 58.0641 75.9985 58.0641H75.8984C75.8984 58.0641 75.7984 58.0641 75.6984 58.0641C75.3984 58.1641 75.1984 58.2641 75.0984 58.4641C74.9984 58.5641 74.8984 58.6641 74.8984 58.7641C74.8984 58.8641 74.9985 58.9641 75.2985 58.9641H76.4985C77.0985 58.9641 77.5985 59.0641 77.9985 59.1641C78.3985 59.2641 78.6985 59.4641 78.9985 59.7641C79.4985 60.1641 79.6984 60.7641 79.6984 61.5641C79.6984 62.2641 79.4985 62.7641 78.9985 63.2641C78.5985 63.6641 78.1984 63.9641 77.5984 64.0641C76.9984 64.2641 76.3984 64.2641 75.6984 64.2641C75.0984 64.2641 74.4985 64.1641 73.9985 64.0641C73.4985 63.9641 72.9984 63.6641 72.5984 63.3641C72.0984 62.9641 71.8984 62.4641 71.8984 61.8641C71.8984 61.6641 71.8985 61.4641 71.9985 61.3641C71.9985 61.2641 72.0984 61.1641 72.0984 61.0641H74.0984C74.0984 61.1641 73.9985 61.2641 73.9985 61.3641C73.9985 61.4641 73.9985 61.5641 73.9985 61.6641C73.9985 61.9641 74.0984 62.2641 74.3984 62.4641C74.6984 62.6641 75.0984 62.7641 75.5984 62.7641C75.8984 62.7641 76.0984 62.7641 76.3984 62.6641C76.5984 62.6641 76.7985 62.5641 76.9985 62.4641C77.1985 62.3641 77.2984 62.2641 77.3984 62.0641C77.4984 61.9641 77.4985 61.7641 77.4985 61.5641C77.4985 61.1641 77.3984 60.9641 77.0984 60.7641C76.7984 60.6641 76.3985 60.5641 75.9985 60.5641H75.0984C74.0984 60.5641 73.4984 60.4641 73.0984 60.2641C72.8984 60.1641 72.6984 60.0641 72.5984 59.8641C72.4984 59.6641 72.3984 59.4641 72.3984 59.1641C72.3984 59.0641 72.3984 58.8641 72.3984 58.7641C72.3984 58.6641 72.4984 58.4641 72.5984 58.3641C72.6984 58.2641 72.8984 58.1641 73.0984 58.0641C73.2984 57.9641 73.5984 57.8641 73.8984 57.7641C72.6984 57.4641 72.0984 56.6641 72.0984 55.4641C72.0984 55.0641 72.1984 54.6641 72.3984 54.2641C72.5984 53.9641 72.7984 53.6641 73.0984 53.3641C73.3984 53.1641 73.7984 52.9641 74.1984 52.7641C74.5984 52.6641 75.0984 52.5641 75.6984 52.5641C75.8984 52.5641 76.1984 52.5641 76.3984 52.5641C76.5984 52.5641 76.8984 52.6641 77.1984 52.7641C77.3984 52.8641 77.5985 52.8641 77.7985 52.8641C77.9985 52.8641 78.0984 52.8641 78.1984 52.8641C78.4984 52.8641 78.7984 52.7641 79.0984 52.6641C79.3984 52.5641 79.6984 52.3641 79.8984 52.1641L80.7985 53.5641C80.3985 53.9641 80.1984 54.0641 79.8984 54.1641ZM76.3984 54.5641C76.1984 54.3641 75.7984 54.2641 75.3984 54.2641C74.9984 54.2641 74.6984 54.3641 74.3984 54.5641C74.1984 54.7641 74.0984 55.0641 74.0984 55.4641C74.0984 55.8641 74.1985 56.1641 74.4985 56.3641C74.6985 56.5641 74.9984 56.6641 75.3984 56.6641C76.2984 56.6641 76.6984 56.2641 76.6984 55.4641C76.7984 55.1641 76.6984 54.8641 76.3984 54.5641Z" fill="white"/>
<path d="M91.1008 61.1633L90.3008 58.4633H87.0008L86.2007 61.1633H83.8008L87.5008 49.8633H90.0008L93.6008 61.1633H91.1008ZM89.7007 56.5633C89.6007 56.2633 89.5008 56.0633 89.5008 55.8633C89.4008 55.6633 89.4008 55.3633 89.3008 55.1633C89.2008 54.8633 89.2008 54.6633 89.1008 54.3633C89.1008 54.2633 89.0008 54.0633 89.0008 53.8633C89.0008 53.6633 88.9008 53.4633 88.9008 53.1633C88.9008 52.9633 88.8007 52.6633 88.7007 52.3633C88.6007 52.6633 88.6008 52.9633 88.5008 53.1633C88.4008 53.3633 88.4008 53.6633 88.3008 53.8633C88.2008 54.1633 88.2008 54.3633 88.1008 54.5633C88.0008 54.9633 87.9008 55.3633 87.8008 55.6633C87.7008 55.9633 87.6008 56.2633 87.5008 56.6633H89.7007V56.5633Z" fill="white"/>
<path d="M101.7 57.9633C101.7 58.2633 101.6 58.6633 101.5 58.9633C101.4 59.2633 101.3 59.5633 101.1 59.7633C101 59.9633 100.8 60.2633 100.6 60.4633C100.3 60.7633 100 60.9633 99.6 61.1633C99.2 61.3633 98.8 61.3633 98.4 61.3633C98.1 61.3633 97.8 61.3633 97.5 61.2633C97.2 61.1633 96.9 61.0633 96.7 60.9633C96.7 61.0633 96.7 61.1633 96.7 61.2633V61.6633V64.2633L94.6 64.8633V55.2633C94.6 54.9633 94.6 54.7633 94.6 54.5633C94.6 54.3633 94.6 54.1633 94.6 54.0633C94.6 53.9633 94.6 53.7633 94.6 53.6633C94.6 53.5633 94.6 53.3633 94.5 53.1633L96.4 52.8633C96.4 53.0633 96.5 53.1633 96.5 53.2633C96.5 53.3633 96.5 53.4633 96.5 53.6633C96.7 53.4633 97 53.2633 97.3 53.0633C97.7 52.9633 98.1 52.8633 98.5 52.8633C98.8 52.8633 99.1 52.8633 99.4 52.9633C99.7 53.0633 99.9 53.1633 100.2 53.3633C100.4 53.5633 100.6 53.6633 100.8 53.8633C101 54.0633 101.1 54.3633 101.3 54.6633C101.4 54.9633 101.5 55.2633 101.6 55.6633C101.7 56.0633 101.7 56.4633 101.7 56.9633C101.7 57.1633 101.7 57.5633 101.7 57.9633ZM99.3 55.8633C99.3 55.5633 99.2 55.2633 99.1 55.0633C98.9 54.5633 98.6 54.3633 98.1 54.3633C97.5 54.3633 97.1 54.5633 96.6 54.9633V59.0633C96.8 59.1633 96.9 59.2633 97.2 59.3633C97.4 59.4633 97.6 59.5633 97.9 59.5633C98.4 59.5633 98.8 59.3633 99.1 58.9633C99.3 58.5633 99.4 57.8633 99.4 56.9633C99.4 56.5633 99.4 56.2633 99.3 55.8633Z" fill="white"/>
<path d="M110.501 57.9633C110.501 58.2633 110.401 58.6633 110.301 58.9633C110.201 59.2633 110.101 59.5633 109.901 59.7633C109.801 59.9633 109.601 60.2633 109.401 60.4633C109.101 60.7633 108.801 60.9633 108.401 61.1633C108.001 61.3633 107.601 61.3633 107.201 61.3633C106.901 61.3633 106.601 61.3633 106.301 61.2633C106.001 61.1633 105.701 61.0633 105.501 60.9633C105.501 61.0633 105.501 61.1633 105.501 61.2633V61.6633V64.2633L103.401 64.8633V55.2633C103.401 54.9633 103.401 54.7633 103.401 54.5633C103.401 54.3633 103.401 54.1633 103.401 54.0633C103.401 53.9633 103.401 53.7633 103.401 53.6633C103.401 53.5633 103.401 53.3633 103.301 53.1633L105.201 52.8633C105.201 53.0633 105.301 53.1633 105.301 53.2633C105.301 53.3633 105.301 53.4633 105.301 53.6633C105.501 53.4633 105.801 53.2633 106.101 53.0633C106.501 52.9633 106.901 52.8633 107.301 52.8633C107.601 52.8633 107.901 52.8633 108.201 52.9633C108.501 53.0633 108.701 53.1633 109.001 53.3633C109.201 53.5633 109.401 53.6633 109.601 53.8633C109.801 54.0633 109.901 54.3633 110.101 54.6633C110.201 54.9633 110.401 55.2633 110.401 55.6633C110.501 56.0633 110.501 56.4633 110.501 56.9633C110.501 57.1633 110.501 57.5633 110.501 57.9633ZM108.101 55.8633C108.101 55.5633 108.001 55.2633 107.901 55.0633C107.701 54.5633 107.401 54.3633 106.901 54.3633C106.301 54.3633 105.901 54.5633 105.401 54.9633V59.0633C105.601 59.1633 105.701 59.2633 106.001 59.3633C106.201 59.4633 106.401 59.5633 106.701 59.5633C107.201 59.5633 107.601 59.3633 107.901 58.9633C108.101 58.5633 108.201 57.8633 108.201 56.9633C108.201 56.5633 108.101 56.2633 108.101 55.8633Z" fill="white"/>
<path d="M114.2 61.3656C113.7 61.3656 113.3 61.2656 113 61.0656C112.7 60.8656 112.4 60.5656 112.3 60.2656C112.3 60.1656 112.2 60.0656 112.2 59.9656C112.2 59.8656 112.2 59.7656 112.1 59.6656C112.1 59.5656 112.1 59.3656 112.1 59.1656C112.1 58.9656 112.1 58.7656 112.1 58.4656V52.2656C112.1 51.6656 112.1 51.2656 112.1 50.8656C112.1 50.4656 112.1 50.1656 112 49.7656L114.2 49.2656C114.2 49.4656 114.3 49.7656 114.3 50.0656C114.3 50.3656 114.3 50.8656 114.3 51.4656V57.9656C114.3 58.3656 114.3 58.5656 114.3 58.8656C114.3 59.0656 114.3 59.2656 114.3 59.3656C114.3 59.4656 114.3 59.5656 114.3 59.6656C114.3 59.7656 114.3 59.7656 114.4 59.8656C114.5 60.0656 114.6 60.0656 114.8 60.0656H114.9H115L115.4 61.3656C115.1 61.2656 114.7 61.3656 114.2 61.3656Z" fill="white"/>
<path d="M118.601 51.4625C118.301 51.7625 118.001 51.8625 117.601 51.8625C117.201 51.8625 116.901 51.7625 116.701 51.4625C116.401 51.1625 116.301 50.8625 116.301 50.4625C116.301 50.0625 116.401 49.7625 116.701 49.4625C117.001 49.1625 117.301 49.0625 117.701 49.0625C118.101 49.0625 118.401 49.1625 118.601 49.4625C118.901 49.7625 119.001 50.0625 119.001 50.4625C119.001 50.8625 118.901 51.2625 118.601 51.4625ZM116.601 61.1625V52.9625L118.801 52.6625V61.1625H116.601Z" fill="white"/>
<path d="M126.499 61.5648C126.299 61.4648 125.999 61.2648 125.799 61.1648C125.599 60.9648 125.399 60.7648 125.299 60.5648C125.199 60.6648 125.099 60.7648 124.999 60.7648C124.899 60.8648 124.799 60.8648 124.699 60.9648C124.299 61.2648 123.699 61.4648 122.999 61.4648C122.099 61.4648 121.399 61.2648 120.899 60.7648C120.399 60.2648 120.199 59.6648 120.199 58.8648C120.199 57.8648 120.499 57.1648 121.199 56.6648C121.899 56.1648 122.899 55.9648 124.199 55.9648H124.399C124.499 55.9648 124.599 55.9648 124.599 55.9648V55.6648C124.599 55.1648 124.499 54.8648 124.399 54.6648C124.299 54.4648 123.999 54.3648 123.599 54.3648C123.299 54.3648 122.899 54.4648 122.499 54.5648C122.099 54.7648 121.699 54.9648 121.199 55.2648L120.299 53.6648C120.499 53.5648 120.699 53.3648 120.899 53.2648C121.099 53.1648 121.299 53.0648 121.599 52.9648C121.999 52.7648 122.399 52.6648 122.799 52.5648C123.199 52.4648 123.499 52.4648 123.899 52.4648C124.599 52.4648 125.199 52.5648 125.699 52.8648C126.199 53.0648 126.499 53.4648 126.599 53.9648C126.599 54.0648 126.699 54.1648 126.699 54.2648C126.699 54.3648 126.699 54.4648 126.699 54.5648C126.699 54.6648 126.699 54.7648 126.699 54.9648V55.5648V58.3648C126.699 58.5648 126.699 58.7648 126.699 58.9648C126.699 59.1648 126.699 59.2648 126.799 59.4648C126.899 59.5648 126.899 59.7648 126.999 59.8648C127.099 59.9648 127.199 60.1648 127.399 60.2648L126.499 61.5648ZM124.599 57.5648C123.799 57.5648 123.299 57.6648 122.999 57.8648C122.699 58.0648 122.599 58.3648 122.599 58.8648C122.599 59.1648 122.699 59.4648 122.899 59.6648C123.099 59.8648 123.299 59.9648 123.599 59.9648C123.799 59.9648 123.999 59.9648 124.199 59.8648C124.399 59.7648 124.599 59.6648 124.699 59.4648L124.599 57.5648Z" fill="white"/>
<path d="M133.402 61.1648V55.7648C133.402 55.2648 133.302 54.9648 133.202 54.7648C133.102 54.5648 132.902 54.4648 132.602 54.4648C132.402 54.4648 132.102 54.5648 131.902 54.6648C131.602 54.7648 131.402 54.9648 131.102 55.1648V61.0648H128.902V54.9648C128.902 54.5648 128.902 54.2648 128.802 53.9648C128.702 53.6648 128.702 53.3648 128.602 53.0648L130.502 52.4648C130.702 52.8648 130.802 53.1648 130.802 53.4648C131.002 53.3648 131.102 53.2648 131.302 53.1648C131.402 53.0648 131.602 52.9648 131.802 52.8648C132.002 52.7648 132.302 52.6648 132.502 52.5648C132.802 52.4648 133.002 52.4648 133.302 52.4648C133.802 52.4648 134.202 52.5648 134.602 52.7648C135.002 52.9648 135.202 53.2648 135.302 53.6648C135.402 53.9648 135.502 54.3648 135.502 54.8648V60.9648H133.402V61.1648Z" fill="white"/>
<path d="M143.102 60.5625C143.002 60.6625 142.902 60.7625 142.702 60.8625C142.402 61.0625 142.102 61.1625 141.802 61.2625C141.502 61.3625 141.102 61.3625 140.702 61.3625C139.602 61.3625 138.702 60.9625 138.002 60.2625C137.402 59.4625 137.102 58.4625 137.102 57.0625C137.102 56.0625 137.302 55.2625 137.602 54.6625C137.902 54.0625 138.302 53.5625 138.802 53.1625C139.102 52.9625 139.402 52.8625 139.802 52.7625C140.202 52.6625 140.502 52.5625 140.902 52.5625C141.202 52.5625 141.502 52.5625 141.702 52.6625C142.002 52.7625 142.202 52.8625 142.502 52.9625C142.702 53.0625 142.802 53.1625 142.902 53.1625C143.002 53.2625 143.102 53.3625 143.302 53.4625L142.202 54.8625C142.002 54.6625 141.802 54.4625 141.502 54.3625C141.302 54.2625 141.102 54.1625 140.802 54.1625C140.302 54.1625 140.002 54.3625 139.702 54.8625C139.502 55.2625 139.402 56.0625 139.402 56.9625C139.402 57.5625 139.402 57.9625 139.502 58.2625C139.602 58.5625 139.702 58.8625 139.802 59.0625C140.002 59.3625 140.402 59.5625 140.802 59.5625C141.302 59.5625 141.802 59.3625 142.302 58.8625L142.402 58.7625L143.402 60.0625C143.302 60.3625 143.202 60.4625 143.102 60.5625Z" fill="white"/>
<path d="M146.4 57.6625C146.4 58.3625 146.6 58.8625 146.9 59.2625C147.2 59.6625 147.6 59.7625 148.2 59.7625C148.9 59.7625 149.6 59.4625 150.3 58.9625L151.1 60.2625C150.2 61.0625 149.1 61.3625 148 61.3625C147.4 61.3625 146.9 61.2625 146.4 61.0625C145.9 60.8625 145.5 60.5625 145.1 60.1625C144.8 59.7625 144.5 59.3625 144.3 58.7625C144.1 58.2625 144 57.6625 144 56.9625C144 56.1625 144.1 55.5625 144.2 55.0625C144.4 54.5625 144.6 54.0625 145 53.6625C145.3 53.2625 145.7 52.9625 146.2 52.8625C146.6 52.6625 147.1 52.5625 147.7 52.5625C148.2 52.5625 148.6 52.6625 149.1 52.7625C149.5 52.9625 149.9 53.1625 150.1 53.4625C150.5 53.8625 150.8 54.3625 150.9 54.9625C151.1 55.5625 151.2 56.2625 151.2 57.1625V57.6625H146.4ZM149 55.9625C149 55.6625 149 55.3625 148.9 55.1625C148.9 54.9625 148.8 54.7625 148.7 54.6625C148.5 54.3625 148.2 54.1625 147.7 54.1625C147.3 54.1625 147 54.3625 146.7 54.6625C146.5 54.9625 146.4 55.4625 146.4 55.9625H149Z" fill="white"/>
<path d="M162.8 61.0625C162.3 61.2625 161.7 61.3625 161.1 61.3625C159.5 61.3625 158.3 60.8625 157.4 59.7625C156.5 58.7625 156 57.3625 156 55.6625C156 54.2625 156.3 53.0625 156.8 52.1625C157.2 51.3625 157.8 50.6625 158.6 50.2625C159.4 49.7625 160.2 49.5625 161.1 49.5625C161.7 49.5625 162.2 49.6625 162.7 49.7625C163.2 49.9625 163.6 50.1625 163.9 50.4625L162.9 51.9625C162.3 51.5625 161.7 51.3625 161.1 51.3625C160.7 51.3625 160.4 51.4625 160 51.6625C159.7 51.8625 159.4 52.0625 159.2 52.3625C158.8 52.9625 158.6 53.9625 158.6 55.2625C158.6 56.0625 158.6 56.6625 158.7 57.1625C158.8 57.6625 158.9 57.9625 159.1 58.3625C159.6 59.1625 160.3 59.6625 161.3 59.6625C161.6 59.6625 162 59.5625 162.3 59.4625C162.6 59.3625 162.9 59.1625 163.3 58.8625L164.3 60.2625C163.7 60.6625 163.3 60.9625 162.8 61.0625Z" fill="white"/>
<path d="M171.999 58.7648C171.799 59.2648 171.599 59.7648 171.199 60.1648C170.899 60.5648 170.499 60.7648 170.099 60.9648C169.699 61.1648 169.099 61.2648 168.499 61.2648C167.899 61.2648 167.399 61.1648 166.999 60.9648C166.499 60.7648 166.099 60.4648 165.799 60.0648C165.499 59.6648 165.199 59.2648 164.999 58.6648C164.799 58.1648 164.699 57.5648 164.699 56.8648C164.699 56.1648 164.799 55.6648 164.999 55.0648C165.199 54.5648 165.399 54.0648 165.799 53.6648C166.099 53.2648 166.499 52.9648 166.999 52.7648C167.499 52.5648 167.999 52.4648 168.499 52.4648C169.699 52.4648 170.599 52.8648 171.299 53.7648C171.599 54.1648 171.899 54.5648 171.999 55.0648C172.199 55.5648 172.199 56.1648 172.199 56.7648C172.299 57.6648 172.199 58.2648 171.999 58.7648ZM169.399 54.6648C169.199 54.3648 168.899 54.2648 168.499 54.2648C168.199 54.2648 167.999 54.3648 167.799 54.4648C167.599 54.6648 167.499 54.8648 167.399 55.0648C167.299 55.2648 167.299 55.5648 167.199 55.8648C167.199 56.1648 167.099 56.5648 167.099 56.9648C167.099 57.9648 167.199 58.6648 167.399 59.0648C167.499 59.2648 167.699 59.4648 167.899 59.5648C168.099 59.6648 168.299 59.7648 168.499 59.7648C168.999 59.7648 169.299 59.5648 169.499 59.0648C169.699 58.6648 169.799 57.8648 169.799 56.9648C169.899 55.8648 169.699 55.0648 169.399 54.6648Z" fill="white"/>
<path d="M178.198 61.1648V55.7648C178.198 55.2648 178.098 54.9648 177.998 54.7648C177.898 54.5648 177.698 54.4648 177.398 54.4648C177.198 54.4648 176.898 54.5648 176.698 54.6648C176.398 54.7648 176.198 54.9648 175.898 55.1648V61.0648H173.698V54.9648C173.698 54.5648 173.698 54.2648 173.598 53.9648C173.498 53.6648 173.498 53.3648 173.398 53.0648L175.298 52.4648C175.498 52.8648 175.598 53.1648 175.598 53.4648C175.798 53.3648 175.898 53.2648 176.098 53.1648C176.198 53.0648 176.398 52.9648 176.598 52.8648C176.798 52.7648 177.098 52.6648 177.298 52.5648C177.498 52.4648 177.798 52.4648 178.098 52.4648C178.598 52.4648 178.998 52.5648 179.398 52.7648C179.798 52.9648 179.998 53.2648 180.198 53.6648C180.298 53.9648 180.398 54.3648 180.398 54.8648V60.9648H178.198V61.1648Z" fill="white"/>
<path d="M184.799 61.3633C184.199 61.3633 183.799 61.2633 183.399 61.0633C182.999 60.8633 182.699 60.5633 182.599 60.1633C182.599 60.0633 182.499 59.9633 182.499 59.9633C182.499 59.8633 182.499 59.7633 182.499 59.7633C182.499 59.6633 182.499 59.5633 182.499 59.4633C182.499 59.3633 182.499 59.1633 182.499 58.9633V54.4633H181.699V52.9633H182.499C182.499 52.5633 182.499 52.1633 182.499 51.8633C182.499 51.5633 182.499 51.2633 182.599 50.9633L184.799 50.3633C184.799 50.7633 184.699 51.1633 184.699 51.5633C184.699 51.9633 184.699 52.4633 184.699 52.8633H186.699L186.099 54.3633H184.699V58.5633C184.699 59.0633 184.799 59.4633 184.899 59.6633C184.999 59.8633 185.299 59.9633 185.699 59.9633C185.799 59.9633 185.899 59.9633 185.999 59.9633C186.099 59.9633 186.299 59.8633 186.499 59.8633L186.799 61.1633C185.999 61.2633 185.399 61.3633 184.799 61.3633Z" fill="white"/>
<path d="M192.002 54.7625C191.802 54.6625 191.602 54.5625 191.402 54.5625C190.902 54.5625 190.502 54.7625 190.102 55.2625V61.1625H187.902V55.5625C187.902 54.9625 187.902 54.4625 187.802 54.0625C187.702 53.6625 187.702 53.3625 187.602 53.0625L189.602 52.5625C189.802 52.8625 189.902 53.2625 189.902 53.7625C190.102 53.4625 190.402 53.1625 190.702 52.9625C191.002 52.7625 191.402 52.5625 191.802 52.5625C192.002 52.5625 192.102 52.5625 192.202 52.5625C192.302 52.5625 192.402 52.6625 192.602 52.6625L192.002 54.7625Z" fill="white"/>
<path d="M199.3 61.5648C199.1 61.4648 198.8 61.2648 198.6 61.1648C198.4 60.9648 198.2 60.7648 198.1 60.5648C198 60.6648 197.9 60.7648 197.8 60.7648C197.7 60.8648 197.6 60.8648 197.5 60.9648C197.1 61.2648 196.5 61.4648 195.8 61.4648C194.9 61.4648 194.2 61.2648 193.7 60.7648C193.2 60.2648 193 59.6648 193 58.8648C193 57.8648 193.3 57.1648 194 56.6648C194.7 56.1648 195.7 55.9648 197 55.9648H197.2C197.3 55.9648 197.4 55.9648 197.4 55.9648V55.6648C197.4 55.1648 197.3 54.8648 197.2 54.6648C197.1 54.4648 196.8 54.3648 196.4 54.3648C196.1 54.3648 195.7 54.4648 195.3 54.5648C194.9 54.7648 194.5 54.9648 194 55.2648L193.1 53.6648C193.3 53.5648 193.5 53.3648 193.7 53.2648C193.9 53.1648 194.1 53.0648 194.4 52.9648C194.8 52.7648 195.2 52.6648 195.6 52.5648C196 52.4648 196.3 52.4648 196.7 52.4648C197.4 52.4648 198 52.5648 198.5 52.8648C199 53.0648 199.3 53.4648 199.4 53.9648C199.4 54.0648 199.5 54.1648 199.5 54.2648C199.5 54.3648 199.5 54.4648 199.5 54.5648C199.5 54.6648 199.5 54.7648 199.5 54.9648V55.5648V58.3648C199.5 58.5648 199.5 58.7648 199.5 58.9648C199.5 59.1648 199.5 59.2648 199.6 59.4648C199.7 59.5648 199.7 59.7648 199.8 59.8648C199.9 59.9648 200 60.1648 200.2 60.2648L199.3 61.5648ZM197.4 57.5648C196.6 57.5648 196.1 57.6648 195.8 57.8648C195.5 58.0648 195.4 58.3648 195.4 58.8648C195.4 59.1648 195.5 59.4648 195.7 59.6648C195.9 59.8648 196.1 59.9648 196.4 59.9648C196.6 59.9648 196.8 59.9648 197 59.8648C197.2 59.7648 197.4 59.6648 197.5 59.4648L197.4 57.5648Z" fill="white"/>
<path d="M207.301 60.5625C207.201 60.6625 207.101 60.7625 206.901 60.8625C206.601 61.0625 206.301 61.1625 206.001 61.2625C205.701 61.3625 205.301 61.3625 204.901 61.3625C203.801 61.3625 202.901 60.9625 202.201 60.2625C201.601 59.4625 201.301 58.4625 201.301 57.0625C201.301 56.0625 201.501 55.2625 201.801 54.6625C202.101 54.0625 202.501 53.5625 203.001 53.1625C203.301 52.9625 203.601 52.8625 204.001 52.7625C204.401 52.6625 204.701 52.5625 205.101 52.5625C205.401 52.5625 205.701 52.5625 205.901 52.6625C206.201 52.7625 206.401 52.8625 206.701 52.9625C206.901 53.0625 207.001 53.1625 207.101 53.1625C207.201 53.2625 207.301 53.3625 207.501 53.4625L206.401 54.8625C206.201 54.6625 206.001 54.4625 205.701 54.3625C205.501 54.2625 205.301 54.1625 205.001 54.1625C204.501 54.1625 204.201 54.3625 203.901 54.8625C203.701 55.2625 203.601 56.0625 203.601 56.9625C203.601 57.5625 203.601 57.9625 203.701 58.2625C203.801 58.5625 203.901 58.8625 204.001 59.0625C204.201 59.3625 204.601 59.5625 205.001 59.5625C205.501 59.5625 206.001 59.3625 206.501 58.8625L206.601 58.7625L207.601 60.0625C207.501 60.3625 207.401 60.4625 207.301 60.5625Z" fill="white"/>
<path d="M211.6 61.3633C211 61.3633 210.6 61.2633 210.2 61.0633C209.8 60.8633 209.5 60.5633 209.4 60.1633C209.4 60.0633 209.3 59.9633 209.3 59.9633C209.3 59.8633 209.3 59.7633 209.3 59.7633C209.3 59.6633 209.3 59.5633 209.3 59.4633C209.3 59.3633 209.3 59.1633 209.3 58.9633V54.4633H208.5V52.9633H209.3C209.3 52.5633 209.3 52.1633 209.3 51.8633C209.3 51.5633 209.3 51.2633 209.4 50.9633L211.6 50.3633C211.6 50.7633 211.5 51.1633 211.5 51.5633C211.5 51.9633 211.5 52.4633 211.5 52.8633H213.5L212.9 54.3633H211.5V58.5633C211.5 59.0633 211.6 59.4633 211.7 59.6633C211.8 59.8633 212.1 59.9633 212.5 59.9633C212.6 59.9633 212.7 59.9633 212.8 59.9633C212.9 59.9633 213.1 59.8633 213.3 59.8633L213.6 61.1633C212.7 61.2633 212.2 61.3633 211.6 61.3633Z" fill="white"/>
<path d="M221.101 58.7648C220.901 59.2648 220.701 59.7648 220.301 60.1648C220.001 60.5648 219.601 60.7648 219.201 60.9648C218.801 61.1648 218.201 61.2648 217.601 61.2648C217.001 61.2648 216.501 61.1648 216.101 60.9648C215.601 60.7648 215.201 60.4648 214.901 60.0648C214.601 59.6648 214.301 59.2648 214.101 58.6648C213.901 58.1648 213.801 57.5648 213.801 56.8648C213.801 56.1648 213.901 55.6648 214.101 55.0648C214.301 54.5648 214.501 54.0648 214.901 53.6648C215.201 53.2648 215.601 52.9648 216.101 52.7648C216.601 52.5648 217.101 52.4648 217.601 52.4648C218.801 52.4648 219.701 52.8648 220.401 53.7648C220.701 54.1648 221.001 54.5648 221.101 55.0648C221.301 55.5648 221.301 56.1648 221.301 56.7648C221.401 57.6648 221.301 58.2648 221.101 58.7648ZM218.601 54.6648C218.401 54.3648 218.101 54.2648 217.701 54.2648C217.401 54.2648 217.201 54.3648 217.001 54.4648C216.801 54.6648 216.701 54.8648 216.601 55.0648C216.501 55.2648 216.501 55.5648 216.401 55.8648C216.401 56.1648 216.301 56.5648 216.301 56.9648C216.301 57.9648 216.401 58.6648 216.601 59.0648C216.701 59.2648 216.901 59.4648 217.101 59.5648C217.301 59.6648 217.501 59.7648 217.701 59.7648C218.201 59.7648 218.501 59.5648 218.701 59.0648C218.901 58.6648 219.001 57.8648 219.001 56.9648C219.001 55.8648 218.901 55.0648 218.601 54.6648Z" fill="white"/>
<path d="M227.099 54.7625C226.899 54.6625 226.699 54.5625 226.499 54.5625C225.999 54.5625 225.599 54.7625 225.199 55.2625V61.1625H222.999V55.5625C222.999 54.9625 222.999 54.4625 222.899 54.0625C222.799 53.6625 222.799 53.3625 222.699 53.0625L224.699 52.5625C224.899 52.8625 224.999 53.2625 224.999 53.7625C225.199 53.4625 225.499 53.1625 225.799 52.9625C226.099 52.7625 226.499 52.5625 226.899 52.5625C227.099 52.5625 227.199 52.5625 227.299 52.5625C227.399 52.5625 227.499 52.6625 227.699 52.6625L227.099 54.7625Z" fill="white"/>
<path d="M234.399 59.6656C234.199 60.0656 233.999 60.3656 233.699 60.5656C233.399 60.8656 232.999 61.0656 232.599 61.1656C232.199 61.2656 231.699 61.3656 231.099 61.3656C230.099 61.3656 228.999 61.0656 227.699 60.3656L228.499 58.7656C228.699 58.8656 228.899 58.9656 229.099 59.0656C229.299 59.1656 229.599 59.2656 229.799 59.3656C229.999 59.4656 230.299 59.5656 230.599 59.5656C230.899 59.6656 231.099 59.6656 231.299 59.6656C231.599 59.6656 231.899 59.5656 232.099 59.3656C232.299 59.1656 232.399 58.9656 232.399 58.6656C232.399 58.3656 232.299 58.1656 232.099 57.9656C231.899 57.7656 231.599 57.6656 231.099 57.5656L230.099 57.3656C229.799 57.2656 229.499 57.1656 229.199 57.0656C228.899 56.8656 228.699 56.7656 228.499 56.5656C228.299 56.3656 228.199 56.1656 228.099 55.8656C227.999 55.5656 227.999 55.3656 227.999 55.0656C227.999 54.6656 228.099 54.2656 228.199 53.9656C228.399 53.6656 228.599 53.3656 228.899 53.0656C229.199 52.8656 229.499 52.6656 229.899 52.4656C230.299 52.3656 230.699 52.2656 231.199 52.2656C231.899 52.2656 232.399 52.3656 232.899 52.5656C233.399 52.7656 233.799 52.8656 234.199 53.0656L233.499 54.5656C233.099 54.3656 232.699 54.1656 232.399 54.0656C232.099 53.9656 231.799 53.9656 231.399 53.9656C231.099 53.9656 230.799 54.0656 230.599 54.1656C230.399 54.2656 230.299 54.4656 230.299 54.7656C230.299 54.9656 230.399 55.1656 230.499 55.2656C230.699 55.3656 230.899 55.4656 231.299 55.5656L232.299 55.8656C232.599 55.9656 232.799 55.9656 232.999 56.0656C233.199 56.1656 233.299 56.1656 233.399 56.2656C233.499 56.3656 233.599 56.4656 233.699 56.4656C233.799 56.5656 233.899 56.6656 233.899 56.7656C234.199 57.1656 234.399 57.6656 234.399 58.1656C234.699 58.9656 234.599 59.3656 234.399 59.6656Z" fill="white"/>
</svg>
