<svg width="110" height="90" viewBox="0 0 194 147" fill="none" xmlns="http://www.w3.org/2000/svg">
<path fill-rule="evenodd" clip-rule="evenodd" d="M151.519 78.6654C154.148 78.6654 156.279 76.5343 156.279 73.9054C156.279 71.2766 154.148 69.1455 151.519 69.1455C148.89 69.1455 146.759 71.2766 146.759 73.9054C146.759 76.5343 148.89 78.6654 151.519 78.6654Z" fill="#38BEAA"/>
<path fill-rule="evenodd" clip-rule="evenodd" d="M16.1582 24.5215C17.9655 24.5215 19.4307 23.0563 19.4307 21.249C19.4307 19.4417 17.9655 17.9766 16.1582 17.9766C14.3509 17.9766 12.8857 19.4417 12.8857 21.249C12.8857 23.0563 14.3509 24.5215 16.1582 24.5215Z" fill="#38BEAA"/>
<path fill-rule="evenodd" clip-rule="evenodd" d="M20.0255 81.6408C21.3399 81.6408 22.4054 80.5752 22.4054 79.2608C22.4054 77.9464 21.3399 76.8809 20.0255 76.8809C18.7111 76.8809 17.6455 77.9464 17.6455 79.2608C17.6455 80.5752 18.7111 81.6408 20.0255 81.6408Z" fill="#38BEAA"/>
<path d="M83.6567 132.8L85.3756 125.906" stroke="#38BEAA" stroke-width="5" stroke-linecap="round"/>
<path d="M16.4638 45.9078L43.5638 52.6646" stroke="#38BEAA" stroke-width="5" stroke-linecap="round"/>
<path d="M126.254 102.567L138.533 123.003" stroke="#38BEAA" stroke-width="5" stroke-linecap="round"/>
<path d="M76.3503 19.5134L80.7694 26.8681" stroke="#38BEAA" stroke-width="5" stroke-linecap="round"/>
<path d="M165.511 38.9481L158.336 43.2595" stroke="#38BEAA" stroke-width="5" stroke-linecap="round"/>
<path d="M65.2624 91.9989L58.0872 96.3102" stroke="#38BEAA" stroke-width="5" stroke-linecap="round"/>
<path d="M191.168 103.655C191.168 105.836 189.4 107.605 187.218 107.605C185.037 107.605 183.269 105.836 183.269 103.655C183.269 101.474 185.037 99.7051 187.218 99.7051C189.4 99.7051 191.168 101.474 191.168 103.655Z" stroke="#38BEAA" stroke-width="4"/>
<path fill-rule="evenodd" clip-rule="evenodd" d="M187.515 40.5864C188.994 40.5864 190.193 39.3876 190.193 37.9089C190.193 36.4302 188.994 35.2314 187.515 35.2314C186.037 35.2314 184.838 36.4302 184.838 37.9089C184.838 39.3876 186.037 40.5864 187.515 40.5864Z" fill="#38BEAA"/>
<g clip-path="url(#clip0_663_16169)">
<path d="M128.332 49.9417C128.332 47.0191 126.15 44.6279 123.484 44.6279H84.697C82.0304 44.6279 79.8486 47.0191 79.8486 49.9417V81.8246C79.8486 84.7471 82.0304 87.1384 84.697 87.1384H123.484C126.15 87.1384 128.332 84.7471 128.332 81.8246V49.9417ZM123.484 49.9417L104.09 63.2262L84.697 49.9417H123.484ZM123.484 81.8246H84.697V55.2555L104.09 68.54L123.484 55.2555V81.8246Z" fill="#38BEAA"/>
</g>
<defs>
<clipPath id="clip0_663_16169">
<rect width="58.1803" height="63.7656" fill="white" transform="translate(75 34)"/>
</clipPath>
</defs>
</svg>
