<svg width="116" height="116" viewBox="0 0 116 116" fill="none" xmlns="http://www.w3.org/2000/svg">
<path d="M58.0932 107.636C85.6294 107.636 107.952 85.313 107.952 57.7768C107.952 30.2405 85.6294 7.91797 58.0932 7.91797C30.5569 7.91797 8.23438 30.2405 8.23438 57.7768C8.23438 85.313 30.5569 107.636 58.0932 107.636Z" fill="#EBF8FF"/>
<path d="M96.506 81.4809V50.8837C96.4886 49.9475 96.2678 49.0263 95.8589 48.1839C95.45 47.3415 94.8628 46.5981 94.138 46.0053L63.6834 18.5983C61.9264 17.0114 59.6431 16.1328 57.2756 16.1328C54.9081 16.1328 52.6248 17.0114 50.8679 18.5983L20.4132 46.0053C19.6944 46.6013 19.1134 47.346 18.7103 48.1883C18.3071 49.0305 18.0915 49.9501 18.0781 50.8837V81.4809H96.506Z" fill="#EBF8FF" stroke="#007BB8" stroke-width="3.10247" stroke-miterlimit="10"/>
<path d="M85.0618 27.5312H29.4805V79.8457H85.0618V27.5312Z" fill="white" stroke="#007BB8" stroke-width="3.10247" stroke-miterlimit="10"/>
<path d="M94.8725 53.6875C91.3206 56.5598 71.7191 72.7518 69.6581 73.9577C67.3888 75.2623 62.6748 76.5778 57.2701 76.5778C51.8655 76.5778 47.1624 75.2623 44.8931 73.9577C42.8212 72.7518 23.2306 56.5598 19.6787 53.6875H18.0781V92.9233C18.0867 94.2116 18.6023 95.4447 19.5133 96.3557C20.4243 97.2666 21.6573 97.7822 22.9456 97.7908H91.6056C92.9053 97.7908 94.1517 97.2745 95.0707 96.3555C95.9897 95.4366 96.506 94.1901 96.506 92.8905V53.6875H94.8725Z" fill="#52B057" stroke="#007BB8" stroke-width="3.10247" stroke-miterlimit="10"/>
<path d="M42.4733 72.1719L24.582 91.291" stroke="#007BB8" stroke-width="3.10247" stroke-miterlimit="10"/>
<path d="M72.0352 72.1719L89.9264 91.291" stroke="#007BB8" stroke-width="3.10247" stroke-miterlimit="10"/>
<path d="M40.9258 43.8867H71.9834" stroke="#007BB8" stroke-width="3.10247" stroke-miterlimit="10"/>
<path d="M40.9258 50.4219H71.9834" stroke="#007BB8" stroke-width="3.10247" stroke-miterlimit="10"/>
<path d="M40.9258 56.957H62.1826" stroke="#007BB8" stroke-width="3.10247" stroke-miterlimit="10"/>
</svg>
