<svg width="18" height="22" viewBox="0 0 18 22" fill="none" xmlns="http://www.w3.org/2000/svg">
<path d="M16 0.5H2C0.89 0.5 0 1.4 0 2.5V16.5C0 17.6 0.89 18.5 2 18.5H6L9 21.5L12 18.5H16C17.1 18.5 18 17.6 18 16.5V2.5C18 1.4 17.1 0.5 16 0.5ZM16 16.5H11.17L10.58 17.09L9 18.67L7.41 17.08L6.83 16.5H2V2.5H16V16.5ZM8 13.5H10V15.5H8V13.5ZM9 5.5C10.1 5.5 11 6.4 11 7.5C11 9.5 8 9.25 8 12.5H10C10 10.25 13 10 13 7.5C13 5.29 11.21 3.5 9 3.5C6.79 3.5 5 5.29 5 7.5H7C7 6.4 7.9 5.5 9 5.5Z" fill="#1E4B68"/>
</svg>
