<svg width="15" height="18" viewBox="0 0 15 18" fill="none" xmlns="http://www.w3.org/2000/svg">
<path d="M13.3333 0.224609H1.66667C0.741667 0.224609 0 0.974609 0 1.89128V13.5579C0 14.4746 0.741667 15.2246 1.66667 15.2246H5L7.5 17.7246L10 15.2246H13.3333C14.25 15.2246 15 14.4746 15 13.5579V1.89128C15 0.974609 14.25 0.224609 13.3333 0.224609ZM13.3333 13.5579H9.30833L8.81667 14.0496L7.5 15.3663L6.175 14.0413L5.69167 13.5579H1.66667V1.89128H13.3333V13.5579ZM6.66667 11.0579H8.33333V12.7246H6.66667V11.0579ZM7.5 4.39128C8.41667 4.39128 9.16667 5.14128 9.16667 6.05794C9.16667 7.72461 6.66667 7.51628 6.66667 10.2246H8.33333C8.33333 8.34961 10.8333 8.14128 10.8333 6.05794C10.8333 4.21628 9.34167 2.72461 7.5 2.72461C5.65833 2.72461 4.16667 4.21628 4.16667 6.05794H5.83333C5.83333 5.14128 6.58333 4.39128 7.5 4.39128Z" fill="#0066BE"/>
</svg>
