<svg width="18" height="21" viewBox="0 0 18 21" fill="none" xmlns="http://www.w3.org/2000/svg">
<path d="M15.3695 0.742188H2.40654C1.37876 0.742188 0.554688 1.57552 0.554688 2.59404V15.557C0.554688 16.5755 1.37876 17.4089 2.40654 17.4089H6.11024L8.88802 20.1866L11.6658 17.4089H15.3695C16.388 17.4089 17.2214 16.5755 17.2214 15.557V2.59404C17.2214 1.57552 16.388 0.742188 15.3695 0.742188ZM15.3695 15.557H10.8973L10.351 16.1033L8.88802 17.5663L7.4158 16.094L6.87876 15.557H2.40654V2.59404H15.3695V15.557ZM7.96209 12.7792H9.81395V14.6311H7.96209V12.7792ZM8.88802 5.37182C9.90654 5.37182 10.7399 6.20515 10.7399 7.22367C10.7399 9.07552 7.96209 8.84404 7.96209 11.8533H9.81395C9.81395 9.76996 12.5917 9.53848 12.5917 7.22367C12.5917 5.17737 10.9343 3.51997 8.88802 3.51997C6.84172 3.51997 5.18432 5.17737 5.18432 7.22367H7.03617C7.03617 6.20515 7.8695 5.37182 8.88802 5.37182Z" fill="#007BB8"/>
</svg>
