<svg width="90" height="90" viewBox="0 0 90 90" fill="none" xmlns="http://www.w3.org/2000/svg">
<path d="M46.3423 81.5128C65.9153 81.5128 81.7823 65.6458 81.7823 46.0728C81.7823 26.4998 65.9153 10.6328 46.3423 10.6328C26.7694 10.6328 10.9023 26.4998 10.9023 46.0728C10.9023 65.6458 26.7694 81.5128 46.3423 81.5128Z" fill="#EBF8FF"/>
<path d="M45.1719 87.9728C56.6646 87.9702 67.6858 83.4028 75.8114 75.2753C83.9371 67.1477 88.5019 56.1256 88.5019 44.6328" stroke="#007BB8" stroke-width="2.83" stroke-miterlimit="10"/>
<path d="M37.1937 2.0332C27.2591 3.89863 18.2886 9.17717 11.8337 16.956C5.37868 24.7349 1.84502 34.5249 1.84375 44.6332" stroke="#007BB8" stroke-width="2.83" stroke-miterlimit="10"/>
<path d="M4.04297 60.5137C7.68424 69.9196 14.435 77.796 23.173 82.8337" stroke="#007BB8" stroke-width="2.83" stroke-miterlimit="10"/>
<mask id="path-5-inside-1_579_1290" fill="white">
<path d="M60.1241 25.341L39.7822 45.6829L34.0668 39.9675C32.4689 38.3696 29.8673 38.3696 28.2695 39.9675L25.4015 42.8354C23.8037 44.4333 23.8037 47.0349 25.4015 48.6328L36.8733 60.1045C38.4711 61.7024 41.0728 61.7024 42.6706 60.1045L68.7894 34.0062C70.3872 32.4084 70.3872 29.8068 68.7894 28.2089L65.9214 25.341C64.3031 23.7431 61.7219 23.7431 60.1241 25.341Z"/>
</mask>
<path d="M60.1241 25.341L58.7393 23.9562V23.9562L60.1241 25.341ZM39.7822 45.6829L38.3974 47.0676L39.7822 48.4524L41.1669 47.0676L39.7822 45.6829ZM34.0668 39.9675L35.4515 38.5827H35.4515L34.0668 39.9675ZM28.2695 39.9675L26.8847 38.5827L26.8847 38.5827L28.2695 39.9675ZM25.4015 42.8354L26.7863 44.2202H26.7863L25.4015 42.8354ZM25.4015 48.6328L24.0168 50.0175H24.0168L25.4015 48.6328ZM36.8733 60.1045L38.258 58.7198H38.258L36.8733 60.1045ZM42.6706 60.1045L41.2864 58.7192L41.2859 58.7198L42.6706 60.1045ZM68.7894 34.0062L70.1736 35.3915L70.1741 35.391L68.7894 34.0062ZM68.7894 28.2089L67.4046 29.5937L68.7894 28.2089ZM65.9214 25.341L67.3062 23.9562L67.2973 23.9474L65.9214 25.341ZM58.7393 23.9562L38.3974 44.2981L41.1669 47.0676L61.5088 26.7257L58.7393 23.9562ZM41.1669 44.2981L35.4515 38.5827L32.682 41.3522L38.3974 47.0676L41.1669 44.2981ZM35.4515 38.5827C33.0889 36.2201 29.2473 36.2201 26.8847 38.5827L29.6542 41.3522C30.4873 40.5191 31.849 40.5191 32.682 41.3522L35.4515 38.5827ZM26.8847 38.5827L24.0168 41.4507L26.7863 44.2202L29.6542 41.3522L26.8847 38.5827ZM24.0168 41.4507C21.6541 43.8133 21.6541 47.6549 24.0168 50.0175L26.7863 47.248C25.9532 46.4149 25.9532 45.0532 26.7863 44.2202L24.0168 41.4507ZM24.0168 50.0175L35.4885 61.4893L38.258 58.7198L26.7863 47.248L24.0168 50.0175ZM35.4885 61.4893C37.8512 63.8519 41.6927 63.8519 44.0554 61.4893L41.2859 58.7198C40.4528 59.5528 39.0911 59.5528 38.258 58.7198L35.4885 61.4893ZM44.0548 61.4898L70.1736 35.3915L67.4052 32.621L41.2864 58.7192L44.0548 61.4898ZM70.1741 35.391C72.5368 33.0284 72.5368 29.1868 70.1741 26.8242L67.4046 29.5937C68.2377 30.4267 68.2377 31.7884 67.4046 32.6215L70.1741 35.391ZM70.1741 26.8242L67.3062 23.9562L64.5367 26.7257L67.4046 29.5937L70.1741 26.8242ZM67.2973 23.9474C64.9212 21.6014 61.1068 21.5888 58.7393 23.9562L61.5088 26.7257C62.3371 25.8975 63.685 25.8849 64.5455 26.7345L67.2973 23.9474Z" fill="#52B057" mask="url(#path-5-inside-1_579_1290)"/>
<path d="M28.593 24.1426V32.9026M24.2031 28.5227H32.9731" stroke="#007BB8" stroke-width="2.92" stroke-miterlimit="10"/>
<path d="M69.9915 10.6328V19.3928M65.6016 15.0129H74.3716" stroke="#007BB8" stroke-width="2.92" stroke-miterlimit="10"/>
<path d="M63.4915 56.9238V65.6838M59.1016 61.304H67.8716" stroke="#007BB8" stroke-width="2.92" stroke-miterlimit="10"/>
</svg>
