<svg width="114" height="90" viewBox="0 0 194 147" fill="none" xmlns="http://www.w3.org/2000/svg">
<path fill-rule="evenodd" clip-rule="evenodd" d="M151.52 78.6654C154.149 78.6654 156.28 76.5343 156.28 73.9054C156.28 71.2766 154.149 69.1455 151.52 69.1455C148.891 69.1455 146.76 71.2766 146.76 73.9054C146.76 76.5343 148.891 78.6654 151.52 78.6654Z" fill="#38BEAA"/>
<path fill-rule="evenodd" clip-rule="evenodd" d="M16.1572 24.5215C17.9646 24.5215 19.4297 23.0563 19.4297 21.249C19.4297 19.4417 17.9646 17.9766 16.1572 17.9766C14.3499 17.9766 12.8848 19.4417 12.8848 21.249C12.8848 23.0563 14.3499 24.5215 16.1572 24.5215Z" fill="#38BEAA"/>
<path fill-rule="evenodd" clip-rule="evenodd" d="M20.0245 81.6408C21.3389 81.6408 22.4045 80.5752 22.4045 79.2608C22.4045 77.9464 21.3389 76.8809 20.0245 76.8809C18.7101 76.8809 17.6445 77.9464 17.6445 79.2608C17.6445 80.5752 18.7101 81.6408 20.0245 81.6408Z" fill="#38BEAA"/>
<path d="M83.6558 132.8L85.3746 125.906" stroke="#38BEAA" stroke-width="5" stroke-linecap="round"/>
<path d="M16.4647 45.9078L43.5647 52.6646" stroke="#38BEAA" stroke-width="5" stroke-linecap="round"/>
<path d="M126.255 102.567L138.534 123.003" stroke="#38BEAA" stroke-width="5" stroke-linecap="round"/>
<path d="M76.3513 19.5134L80.7704 26.8681" stroke="#38BEAA" stroke-width="5" stroke-linecap="round"/>
<path d="M165.512 38.9481L158.337 43.2595" stroke="#38BEAA" stroke-width="5" stroke-linecap="round"/>
<path d="M65.2624 91.9989L58.0872 96.3102" stroke="#38BEAA" stroke-width="5" stroke-linecap="round"/>
<path d="M191.167 103.655C191.167 105.836 189.399 107.605 187.217 107.605C185.036 107.605 183.268 105.836 183.268 103.655C183.268 101.474 185.036 99.7051 187.217 99.7051C189.399 99.7051 191.167 101.474 191.167 103.655Z" stroke="#38BEAA" stroke-width="4"/>
<path fill-rule="evenodd" clip-rule="evenodd" d="M187.515 40.5864C188.994 40.5864 190.193 39.3876 190.193 37.9089C190.193 36.4302 188.994 35.2314 187.515 35.2314C186.037 35.2314 184.838 36.4302 184.838 37.9089C184.838 39.3876 186.037 40.5864 187.515 40.5864Z" fill="#38BEAA"/>
<path d="M119.087 52.0268C119.85 52.7905 119.85 54.0047 119.087 54.7685L96.8792 76.976C96.1154 77.7397 94.9013 77.7397 94.1375 76.976L85.9125 68.7509C85.1488 67.9872 85.1488 66.773 85.9125 66.0093C86.6763 65.2455 87.8904 65.2455 88.6542 66.0093L95.5084 72.8635L116.345 52.0268C117.109 51.263 118.323 51.263 119.087 52.0268ZM114.955 47.8751L95.5084 67.3214L90.0446 61.8576C88.5171 60.3301 86.03 60.3301 84.5025 61.8576L81.7609 64.5993C80.2334 66.1268 80.2334 68.6139 81.7609 70.1414L92.7275 81.108C94.255 82.6355 96.7421 82.6355 98.2696 81.108L123.238 56.1589C124.766 54.6314 124.766 52.1443 123.238 50.6168L120.497 47.8751C118.95 46.3476 116.482 46.3476 114.955 47.8751Z" fill="#38BEAA"/>
</svg>
