<svg width="57" height="57" viewBox="0 0 57 57" fill="none" xmlns="http://www.w3.org/2000/svg">
<circle cx="28.5" cy="28.5" r="28.5" fill="#E8F8FF"/>
<g clip-path="url(#clip0_593_20020)">
<path d="M28.4999 19.6048C30.1916 19.6048 31.5624 20.9757 31.5624 22.6673C31.5624 24.359 30.1916 25.7298 28.4999 25.7298C26.8083 25.7298 25.4374 24.359 25.4374 22.6673C25.4374 20.9757 26.8083 19.6048 28.4999 19.6048ZM28.4999 32.7298C32.8312 32.7298 37.3958 34.859 37.3958 35.7923V37.3965H19.6041V35.7923C19.6041 34.859 24.1687 32.7298 28.4999 32.7298ZM28.4999 16.834C25.277 16.834 22.6666 19.4444 22.6666 22.6673C22.6666 25.8902 25.277 28.5007 28.4999 28.5007C31.7228 28.5007 34.3333 25.8902 34.3333 22.6673C34.3333 19.4444 31.7228 16.834 28.4999 16.834ZM28.4999 29.959C24.6062 29.959 16.8333 31.9132 16.8333 35.7923V40.1673H40.1666V35.7923C40.1666 31.9132 32.3937 29.959 28.4999 29.959Z" fill="#0066BE"/>
</g>
<defs>
<clipPath id="clip0_593_20020">
<rect width="35" height="35" fill="white" transform="translate(11 11)"/>
</clipPath>
</defs>
</svg>
