<svg width="57" height="57" viewBox="0 0 57 57" fill="none" xmlns="http://www.w3.org/2000/svg">
<circle cx="28.5" cy="28.5" r="28.5" fill="#E8FFFA"/>
<path d="M35.3101 30.1484C37.308 31.5047 38.708 33.3422 38.708 35.7922V40.1672H44.5413V35.7922C44.5413 32.613 39.3351 30.7318 35.3101 30.1484Z" fill="#006666"/>
<path d="M32.8746 28.4987C36.0976 28.4987 38.708 25.8883 38.708 22.6654C38.708 19.4424 36.0976 16.832 32.8746 16.832C32.1892 16.832 31.5476 16.9779 30.9351 17.182C32.1455 18.6841 32.8746 20.5945 32.8746 22.6654C32.8746 24.7362 32.1455 26.6466 30.9351 28.1487C31.5476 28.3529 32.1892 28.4987 32.8746 28.4987Z" fill="#006666"/>
<path d="M24.1246 28.4987C27.3475 28.4987 29.9579 25.8883 29.9579 22.6654C29.9579 19.4424 27.3475 16.832 24.1246 16.832C20.9017 16.832 18.2913 19.4424 18.2913 22.6654C18.2913 25.8883 20.9017 28.4987 24.1246 28.4987ZM24.1246 19.7487C25.7288 19.7487 27.0413 21.0612 27.0413 22.6654C27.0413 24.2695 25.7288 25.582 24.1246 25.582C22.5204 25.582 21.2079 24.2695 21.2079 22.6654C21.2079 21.0612 22.5204 19.7487 24.1246 19.7487Z" fill="#006666"/>
<path d="M24.1247 29.957C20.2309 29.957 12.458 31.9112 12.458 35.7904V40.1654H35.7913V35.7904C35.7913 31.9112 28.0184 29.957 24.1247 29.957ZM32.8747 37.2487H15.3747V35.8049C15.6663 34.7549 20.1872 32.8737 24.1247 32.8737C28.0622 32.8737 32.583 34.7549 32.8747 35.7904V37.2487Z" fill="#006666"/>
</svg>
