<svg width="120" height="40" viewBox="0 0 120 40" fill="none" xmlns="http://www.w3.org/2000/svg">
<path fill-rule="evenodd" clip-rule="evenodd" d="M15.6803 11.7939H12.5545V8.79319C12.5545 7.18258 11.248 5.86536 9.65066 5.86536H9.50593C7.90904 5.86536 6.60162 7.18258 6.60162 8.79319V11.7939H3.47668C1.8392 11.7939 0.5 13.0795 0.5 14.6502V14.793C0.5 16.3641 1.8392 17.6496 3.47668 17.6496H6.60162V20.7966C6.60162 22.4072 7.90904 23.7245 9.50593 23.7245H9.65066C11.248 23.7245 12.5545 22.4072 12.5545 20.7966V17.6496H15.6803C17.3174 17.6496 18.6566 16.3641 18.6566 14.793V14.6502C18.6566 13.0795 17.3174 11.7939 15.6803 11.7939Z" fill="#0C161F"/>
<path fill-rule="evenodd" clip-rule="evenodd" d="M58.835 11.9428C57.0511 11.3864 55.0906 12.2722 54.4773 13.9115L49.5224 27.167L44.708 14.2895L44.5663 13.9115C44.0818 12.6147 42.7541 11.79 41.3364 11.7774C39.9195 11.79 38.5905 12.6147 38.106 13.9115L37.9643 14.2895L33.1507 27.167L28.1955 13.9115C27.5826 12.2722 25.6217 11.3864 23.8381 11.9428C22.0541 12.4992 21.0958 14.296 21.7078 15.9348L29.8872 37.8146L29.9053 37.8641C30.392 39.1653 31.7277 39.9908 33.1507 39.9981C34.5738 39.9908 35.9094 39.1653 36.3957 37.8641L36.4138 37.8142L41.3364 24.6476L46.2585 37.8146L46.2766 37.8641C46.7637 39.1653 48.0994 39.9908 49.5224 39.9981C50.9446 39.9908 52.2807 39.1653 52.767 37.8641L52.7855 37.8142L60.9645 15.9348C61.5779 14.296 60.619 12.4992 58.835 11.9428Z" fill="#0C161F"/>
<mask id="mask0" mask-type="alpha" maskUnits="userSpaceOnUse" x="91" y="0" width="8" height="40">
<path fill-rule="evenodd" clip-rule="evenodd" d="M91.9922 0H98.8391V40H91.9922V0Z" fill="white"/>
</mask>
<g mask="url(#mask0)">
<path fill-rule="evenodd" clip-rule="evenodd" d="M95.5213 -0.000244141H95.31C93.4849 -0.000244141 91.9922 1.46801 91.9922 3.26222V36.737C91.9922 38.5317 93.4849 39.9999 95.31 39.9999H95.5213C97.3459 39.9999 98.8391 38.5317 98.8391 36.737V3.26222C98.8391 1.46801 97.3459 -0.000244141 95.5213 -0.000244141Z" fill="#0C161F"/>
</g>
<path fill-rule="evenodd" clip-rule="evenodd" d="M81.8388 22.5066C81.83 22.4702 81.8225 22.438 81.8168 22.415C81.8225 22.438 81.83 22.4702 81.8388 22.5066ZM69.2551 22.3604C69.4113 21.9203 69.5984 21.5028 69.8124 21.1113C70.1724 20.4008 70.6432 19.7902 71.2138 19.2941C72.3085 18.3393 73.773 17.8076 75.5332 17.8076C75.5689 17.8076 75.6038 17.8093 75.6395 17.8098C78.7495 17.8514 81.0241 19.7225 81.8029 22.3604H69.2551ZM89.4343 24.589C88.9163 16.894 83.1482 11.4502 75.5331 11.4502C67.5487 11.4502 61.1488 17.8701 61.1488 25.7231C61.1488 33.5765 67.6127 39.996 75.5962 39.996C75.8716 39.996 76.1491 39.9894 76.4275 39.9777C80.5965 39.9434 83.867 38.6492 86.3923 36.5916C86.5798 36.4284 86.7568 36.2396 86.9112 36.0248C87.251 35.5539 87.4813 34.9606 87.4813 34.2431C87.4813 32.4724 86.1196 31.1174 84.2686 31.1174C83.3962 31.1174 82.8508 31.3253 82.2516 31.7415C80.6313 32.8916 78.8081 33.5622 76.6398 33.6138C76.5502 33.6195 75.5777 33.6325 75.4131 33.6234C72.8446 33.4823 70.8104 32.2554 69.7748 30.377C69.6852 30.2073 69.6001 30.0337 69.5202 29.8544C69.2943 29.3436 69.1129 28.7941 68.9775 28.216H86.1307C89.2375 28.216 89.4639 25.6389 89.4361 24.642C89.4352 24.6237 89.4343 24.6064 89.4343 24.589Z" fill="#0C161F"/>
<mask id="mask1" mask-type="alpha" maskUnits="userSpaceOnUse" x="101" y="0" width="8" height="40">
<path fill-rule="evenodd" clip-rule="evenodd" d="M101.852 0H108.698V40H101.852V0Z" fill="white"/>
</mask>
<g mask="url(#mask1)">
<path fill-rule="evenodd" clip-rule="evenodd" d="M105.381 -0.000244141H105.169C103.344 -0.000244141 101.852 1.46801 101.852 3.26222V36.737C101.852 38.5317 103.344 39.9999 105.169 39.9999H105.381C107.205 39.9999 108.698 38.5317 108.698 36.737V3.26222C108.698 1.46801 107.205 -0.000244141 105.381 -0.000244141Z" fill="#0C161F"/>
</g>
</svg>
